<?xml version="1.0" encoding="iso-8859-1"?>
<!-- Generator: Adobe Illustrator 19.0.0, SVG Export Plug-In . SVG Version: 6.00 Build 0)  -->
<svg version="1.1" id="Capa_1" xmlns="http://www.w3.org/2000/svg" xmlns:xlink="http://www.w3.org/1999/xlink" x="0px" y="0px"
	 viewBox="0 0 512.001 512.001" style="enable-background:new 0 0 512.001 512.001;" xml:space="preserve">
<g>
	<path style="fill:#799EE5;" d="M159.835,403.501h-58.192c-27.333,0-49.57-22.237-49.57-49.57v-82.532
		c0-27.333,22.237-49.57,49.57-49.57h58.192c9.899,0,17.924,8.025,17.924,17.924s-8.025,17.924-17.924,17.924h-58.192
		c-7.566,0-13.722,6.156-13.722,13.722v82.532c0,7.566,6.156,13.722,13.722,13.722h58.192c9.899,0,17.924,8.025,17.924,17.924
		C177.76,395.475,169.735,403.501,159.835,403.501z"/>
	<path style="fill:#799EE5;" d="M336.631,141.042l-37.344-18.831l39.875-79.078c8.824-17.497,26.443-29.298,45.979-30.797
		l62.622-4.806c5.343-0.41,10.007,3.589,10.417,8.932l1.715,22.351c0.41,5.343-3.589,10.007-8.932,10.417l-62.623,4.806
		c-5.028,0.386-9.564,3.424-11.836,7.929L336.631,141.042z"/>
</g>
<path style="fill:#EFA8B8;" d="M353.928,75.281c-3.358-0.178-6.612,0.147-9.698,0.904c-4.506,1.105-9.246-0.018-12.622-3.2
	c-8.129-7.66-19.082-12.355-31.133-12.355s-23.005,4.695-31.133,12.356c-3.376,3.182-8.115,4.304-12.621,3.199
	c-3.085-0.757-6.339-1.082-9.697-0.904c-17.3,0.915-31.198,15.425-31.401,32.748c-0.217,18.516,14.727,33.593,33.192,33.593
	c3.844,0,7.533-0.656,10.965-1.86c4.237-1.486,8.965-0.942,12.481,1.85c7.748,6.155,17.551,9.833,28.214,9.833
	c10.664,0,20.467-3.678,28.214-9.833c3.515-2.793,8.244-3.336,12.48-1.85c3.432,1.204,7.121,1.86,10.965,1.86
	c18.465,0,33.408-15.076,33.192-33.591C385.125,90.709,371.228,76.197,353.928,75.281z"/>
<path style="fill:#D1E9FA;" d="M399.034,162.465V139.41c0-10.861-8.805-19.665-19.665-19.665H221.581
	c-10.861,0-19.665,8.804-19.665,19.665v23.055c-34.875,11.73-60.005,44.667-60.005,83.495v215.249
	c0,23.91,19.383,43.293,43.293,43.293h230.542c23.91,0,43.293-19.383,43.293-43.293v-215.25
	C459.039,207.131,433.909,174.194,399.034,162.465z"/>
<path style="fill:#BADDF7;" d="M433.272,500.795c-210.716-71.812-196.713-275.229-171.476-328.704
	c2.984-6.323,3.363-13.564,1.129-20.189c-3.966-11.763-3.174-23.404,0.916-32.157h-42.26c-10.861,0-19.665,8.804-19.665,19.665
	v23.055c-34.875,11.73-60.005,44.667-60.005,83.495v215.249c0,23.91,19.383,43.293,43.293,43.293h230.542
	C421.986,504.501,427.912,503.171,433.272,500.795z"/>
<path style="fill:#799EE5;" d="M141.911,449.662v11.546c0,23.91,19.383,43.293,43.293,43.293h230.542
	c23.91,0,43.293-19.383,43.293-43.293v-11.546H141.911z"/>
<path style="fill:#6E8FD1;" d="M415.746,504.501c6.24,0,12.166-1.33,17.525-3.707c-38.694-13.187-69.804-30.814-94.665-51.133
	H141.911v11.546c0,23.91,19.383,43.293,43.293,43.293h230.542V504.501z"/>
<path style="fill:#E87684;" d="M177.76,449.662V255.414c0-34.077,27.625-61.702,61.702-61.702h122.027
	c34.077,0,61.702,27.625,61.702,61.702v194.248c0,10.489-8.503,18.991-18.991,18.991H196.751
	C186.262,468.653,177.76,460.15,177.76,449.662z"/>
<path style="fill:#D46170;" d="M254.432,193.711h-14.971c-34.077,0-61.702,27.625-61.702,61.702v194.248
	c0,10.489,8.503,18.991,18.992,18.991h168.273C242.919,391.534,238.641,256.913,254.432,193.711z"/>
<path style="fill:#EFA8B8;" d="M423.191,449.662V389.3c-32.831,14.388-79.258,19.049-123.904,10.587
	c-45.757-8.673-92.186-7.414-121.528,5.531v44.245c0,10.489,8.503,18.991,18.992,18.991h207.448
	C414.688,468.653,423.191,460.15,423.191,449.662z"/>
<path style="fill:#EB8EA3;" d="M365.029,468.653c-31.99-20.204-55.894-44.352-73.467-70.132
	c-43.201-7.126-86.111-5.321-113.802,6.896v44.245c0,10.489,8.503,18.991,18.992,18.991L365.029,468.653L365.029,468.653z"/>
<g>
	<ellipse style="fill:#FFFFFF;" cx="227.389" cy="326.77" rx="26.967" ry="21.475"/>
	<ellipse style="fill:#FFFFFF;" cx="373.559" cy="326.77" rx="26.967" ry="21.475"/>
</g>
<g>
	<path style="fill:#EFA8B8;" d="M358.109,135.999c0-8.977,7.277-16.255,16.254-16.255V106.92h-69.992v12.824
		c8.977,0,16.255,7.277,16.255,16.255v13.207c0,10.351,8.391,18.742,18.742,18.742l0,0c10.351,0,18.742-8.391,18.742-18.742v-13.207
		H358.109z"/>
	<circle style="fill:#EFA8B8;" cx="235.929" cy="432.53" r="7.18"/>
</g>
<circle style="fill:#EB8EA3;" cx="367.189" cy="439.71" r="7.18"/>
<circle style="fill:#E87684;" cx="215.619" cy="256.53" r="7.18"/>
<g>
	<circle style="fill:#D46170;" cx="285.349" cy="227.25" r="7.18"/>
	<circle style="fill:#D46170;" cx="339.369" cy="377.99" r="7.18"/>
	<circle style="fill:#D46170;" cx="385.329" cy="249.35" r="7.18"/>
</g>
<path d="M361.488,186.211H239.462c-38.158,0-69.202,31.044-69.202,69.202v150.08c0,0.021,0,0.042,0,0.064v44.104
	c0,14.607,11.884,26.492,26.491,26.492h207.448c14.607,0,26.491-11.884,26.491-26.492v-60.423c0-0.021,0-0.041,0-0.062V255.414
	C430.691,217.255,399.647,186.211,361.488,186.211z M415.691,449.662c0,6.336-5.155,11.492-11.491,11.492H196.751
	c-6.336,0-11.491-5.155-11.491-11.492v-39.198c27.235-10.272,68.795-11.518,112.631-3.209c40.705,7.717,83.809,5.068,117.8-6.945
	L415.691,449.662L415.691,449.662z M415.691,384.291c-32.188,12.757-74.731,15.861-115.007,8.227
	c-43.709-8.284-85.759-7.413-115.424,2.083V255.414c0-29.887,24.315-54.202,54.202-54.202h122.026
	c29.887,0,54.202,24.315,54.202,54.202v128.877H415.691z M357.845,288.329c-4.143,0-7.5,3.358-7.5,7.5v9.523
	c0,4.142,3.357,7.5,7.5,7.5s7.5-3.358,7.5-7.5v-9.523C365.345,291.686,361.987,288.329,357.845,288.329z M243.106,288.329
	c-4.143,0-7.5,3.358-7.5,7.5v9.523c0,4.142,3.357,7.5,7.5,7.5s7.5-3.358,7.5-7.5v-9.523
	C250.606,291.686,247.248,288.329,243.106,288.329z M320.528,300.12c-3.122-2.722-7.86-2.397-10.582,0.726
	c-2.392,2.744-5.844,4.318-9.472,4.318c-3.627,0-7.079-1.574-9.471-4.318c-2.723-3.123-7.46-3.448-10.582-0.726
	c-3.123,2.721-3.447,7.459-0.727,10.581c5.242,6.014,12.815,9.463,20.779,9.463c7.965,0,15.538-3.449,20.78-9.463
	C323.976,307.579,323.651,302.841,320.528,300.12z M406.534,157.236V139.41c0-10.335-5.802-19.338-14.319-23.929
	c0.435-2.476,0.64-4.994,0.61-7.536c-0.146-12.613-6.092-23.918-15.32-31.306l5.695-11.296c1.098-2.175,3.287-3.643,5.715-3.829
	l62.621-4.806c4.582-0.351,8.753-2.466,11.744-5.955c2.991-3.488,4.445-7.933,4.093-12.514l-1.715-22.351
	c-0.726-9.458-8.996-16.571-18.47-15.836l-62.622,4.806c-22.139,1.699-42.103,15.071-52.102,34.898l-9.318,18.478
	c-7.013-3.331-14.728-5.104-22.673-5.104c-13.541,0-26.425,5.113-36.276,14.398c-1.46,1.376-3.59,1.889-5.69,1.373
	c-3.867-0.949-7.863-1.323-11.879-1.11c-1.874,0.099-3.754,0.332-5.588,0.691c-4.064,0.797-6.714,4.738-5.916,8.803
	c0.797,4.065,4.737,6.715,8.803,5.917c1.145-0.225,2.32-0.37,3.493-0.432c2.547-0.136,5.073,0.1,7.514,0.699
	c7.064,1.731,14.374-0.146,19.551-5.025c7.058-6.651,16.288-10.314,25.989-10.314c7.816,0,15.324,2.381,21.638,6.783
	c0.056,0.038,0.111,0.077,0.169,0.113c1.463,1.032,2.861,2.172,4.183,3.418c5.179,4.879,12.487,6.756,19.553,5.024
	c2.439-0.599,4.966-0.835,7.515-0.698c13.242,0.701,24.142,12.072,24.296,25.349c0.016,1.39-0.1,2.765-0.304,4.125h-3.161
	c-13.098,0-23.753,10.657-23.753,23.754v13.207c0,6.199-5.043,11.242-11.242,11.242c-6.198,0-11.241-5.043-11.241-11.242v-13.207
	c0-13.098-10.656-23.754-23.754-23.754h-80.946c-0.204-1.36-0.321-2.735-0.304-4.126c0.028-2.352,0.385-4.686,1.061-6.938
	c1.19-3.967-1.062-8.148-5.028-9.338c-3.968-1.191-8.148,1.061-9.339,5.029c-1.078,3.593-1.647,7.317-1.691,11.07
	c-0.03,2.543,0.175,5.062,0.61,7.539c-8.516,4.591-14.318,13.594-14.318,23.928v17.827c-25.996,10.41-45.659,31.463-54.636,57.092
	h-38.137c-31.468,0-57.069,25.602-57.069,57.07v82.533c0,31.468,25.602,57.07,57.069,57.07h32.769v50.208
	c0,28.007,22.786,50.793,50.793,50.793h230.542c28.008,0,50.793-22.786,50.793-50.793v-31.379c0-4.142-3.357-7.5-7.5-7.5
	c-4.142,0-7.5,3.358-7.5,7.5v31.379c0,19.736-16.057,35.793-35.793,35.793H185.204c-19.736,0-35.793-16.057-35.793-35.793V245.959
	c0-34.645,22.061-65.343,54.895-76.386c3.053-1.027,5.109-3.888,5.109-7.109V139.41c0-5.848,4.148-10.742,9.656-11.902
	c0.03-0.005,0.06-0.014,0.09-0.02c0.782-0.159,1.591-0.243,2.419-0.243h82.791c4.827,0,8.754,3.927,8.754,8.754v13.207
	c0,14.47,11.771,26.242,26.241,26.242s26.242-11.772,26.242-26.242v-13.207c0-4.827,3.927-8.754,8.753-8.754h5.007
	c0.829,0,1.638,0.085,2.42,0.243c0.03,0.006,0.06,0.015,0.09,0.02c5.508,1.16,9.656,6.054,9.656,11.902v23.055
	c0,3.221,2.057,6.082,5.109,7.109c32.835,11.043,54.895,41.741,54.895,76.386v148.388c0,4.142,3.358,7.5,7.5,7.5
	c4.143,0,7.5-3.358,7.5-7.5V245.959C466.539,206.689,442.644,171.696,406.534,157.236z M369.808,58.589l-5.543,10.994
	c-3.164-0.99-6.493-1.609-9.94-1.791c-4.017-0.214-8.012,0.161-11.881,1.109c-2.103,0.517-4.231,0.003-5.692-1.373
	c-0.335-0.316-0.683-0.615-1.026-0.922l10.133-20.094c7.649-15.168,22.922-25.397,39.857-26.697l62.622-4.806
	c1.197-0.095,2.272,0.816,2.366,2.028l1.715,22.351c0.058,0.752-0.254,1.287-0.524,1.603c-0.271,0.316-0.752,0.705-1.505,0.762
	l-62.621,4.806C380.138,47.144,373.256,51.753,369.808,58.589z M134.411,360.152h-32.769c-3.431,0-6.222-2.791-6.222-6.222v-82.533
	c0-3.431,2.791-6.222,6.222-6.222h32.769V360.152z M134.411,245.959v4.217h-32.769c-11.702,0-21.222,9.52-21.222,21.222v82.533
	c0,11.702,9.52,21.222,21.222,21.222h32.769V396h-32.769c-23.197,0-42.069-18.872-42.069-42.07v-82.533
	c0-23.197,18.872-42.07,42.069-42.07h34.233C134.922,234.753,134.411,240.309,134.411,245.959z"/>
<g>
</g>
<g>
</g>
<g>
</g>
<g>
</g>
<g>
</g>
<g>
</g>
<g>
</g>
<g>
</g>
<g>
</g>
<g>
</g>
<g>
</g>
<g>
</g>
<g>
</g>
<g>
</g>
<g>
</g>
</svg>
