<?xml version="1.0" encoding="UTF-8" standalone="no"?>
<!DOCTYPE svg PUBLIC "-//W3C//DTD SVG 1.1//EN" "http://www.w3.org/Graphics/SVG/1.1/DTD/svg11.dtd">
<svg width="100%" height="100%" viewBox="0 0 461 480" version="1.1" xmlns="http://www.w3.org/2000/svg" xmlns:xlink="http://www.w3.org/1999/xlink" xml:space="preserve" xmlns:serif="http://www.serif.com/" style="fill-rule:evenodd;clip-rule:evenodd;stroke-linejoin:round;stroke-miterlimit:2;">
    <g id="Artboard1" transform="matrix(1,0,0,1,-0.425254,-0.176073)">
        <rect x="0.425" y="0.176" width="460.998" height="479.99" style="fill:none;"/>
        <clipPath id="_clip1">
            <rect x="0.425" y="0.176" width="460.998" height="479.99"/>
        </clipPath>
        <g clip-path="url(#_clip1)">
            <g transform="matrix(0.999997,0,0,0.999992,-26.1494,-15.6538)">
                <g>
                    <g id="Filled_outline">
                        <g transform="matrix(-1,0,0,1,515,0)">
                            <path d="M384,199.991L384,456C384,473.555 369.555,488 352,488L176,488C158.445,488 144,473.555 144,456L144,200C144,182.445 158.445,168 176,168L352.009,168C369.559,168 384,182.441 384,199.991Z" style="fill:rgb(247,175,175);fill-rule:nonzero;"/>
                        </g>
                        <g transform="matrix(-1,0,0,1,515,0)">
                            <path d="M384,199.991L384,456C384,473.555 369.555,488 352,488L272,488C289.555,488 304,473.555 304,456L304,199.991C304,182.441 289.559,168 272.009,168L272,168L352.009,168C369.559,168 384,182.441 384,199.991Z" style="fill:rgb(241,169,169);fill-rule:nonzero;"/>
                        </g>
                        <g transform="matrix(-1,0,0,1,515,0)">
                            <path d="M432.645,216L384,216L384,256L432,256C436.389,256 440,259.611 440,264L440,392C440,396.389 436.389,400 432,400L384,400L384,440L432.645,440C458.623,439.999 479.999,418.623 480,392.645L480,263.355C479.999,237.377 458.623,216.001 432.645,216Z" style="fill:rgb(160,221,229);fill-rule:nonzero;"/>
                        </g>
                        <g transform="matrix(-1,0,0,1,515,0)">
                            <rect x="168" y="104" width="192" height="64" style="fill:rgb(160,221,229);"/>
                        </g>
                        <g transform="matrix(-1,0,0,1,515,0)">
                            <rect x="312" y="104" width="48" height="64" style="fill:rgb(146,216,224);"/>
                        </g>
                        <g transform="matrix(-1,0,0,1,515,0)">
                            <path d="M384,199.991L384,284C384,273.028 374.972,264 364,264C353.028,264 344,273.028 344,284L344,300C344,310.972 334.972,320 324,320C313.028,320 304,310.972 304,300L304,260C304,249.028 294.972,240 284,240C273.028,240 264,249.028 264,260L264,348C264,358.972 254.972,368 244,368C233.028,368 224,358.972 224,348L224,284C224,273.028 214.972,264 204,264C193.028,264 184,273.028 184,284L184,316C184,326.972 174.972,336 164,336C153.028,336 144,326.972 144,316L144,200C144,182.445 158.445,168 176,168L352.009,168C369.559,168 384,182.441 384,199.991Z" style="fill:rgb(235,235,233);fill-rule:nonzero;"/>
                        </g>
                        <g transform="matrix(-1,0,0,1,515,0)">
                            <path d="M384,199.991L384,284C384,273.028 374.972,264 364,264C353.028,264 344,273.028 344,284L344,300C344,310.972 334.972,320 324,320C313.028,320 304,310.972 304,300L304,199.991C304,182.441 289.559,168 272.009,168L272,168L352.009,168C369.559,168 384,182.441 384,199.991Z" style="fill:rgb(224,224,222);fill-rule:nonzero;"/>
                        </g>
                        <g transform="matrix(-1,0,0,1,515,0)">
                            <path d="M157.167,488L109.534,488C100.666,488 91.949,485.685 84.249,481.285C59.975,467.414 51.414,436.025 65.285,411.751L78.715,388.251C92.586,363.977 123.975,355.416 148.249,369.287L150.842,370.769C156.883,374.221 162.154,378.874 166.328,384.44L191.9,418.54C201.749,431.674 203.34,449.316 196,464C188.657,478.686 173.586,488 157.167,488Z" style="fill:rgb(255,0,0);fill-rule:nonzero;"/>
                        </g>
                        <g transform="matrix(-1,0,0,1,515,0)">
                            <path d="M360,41.19L342.88,72L325.1,104L307.33,136L289.55,168L241.55,168L259.33,136L277.1,104L321.55,24L357.34,40L360,41.19Z" style="fill:rgb(224,224,222);fill-rule:nonzero;"/>
                        </g>
                        <g transform="matrix(-1,0,0,1,515,0)">
                            <path d="M307.33,136L289.55,168L241.55,168L259.33,136L307.33,136Z" style="fill:rgb(136,196,204);fill-rule:nonzero;"/>
                        </g>
                        <g transform="matrix(-1,0,0,1,515,0)">
                            <path d="M325.1,104L307.33,136L259.33,136L277.1,104L325.1,104Z" style="fill:rgb(255,0,0);fill-rule:nonzero;"/>
                        </g>
                        <g transform="matrix(-1,0,0,1,515,0)">
                            <path d="M360,41.19L342.88,72L294.88,72L312.66,40L357.34,40L360,41.19Z" style="fill:rgb(255,0,0);fill-rule:nonzero;"/>
                        </g>
                        <g transform="matrix(-1,0,0,1,515,0)">
                            <rect x="384" y="216" width="24" height="40" style="fill:rgb(146,216,224);"/>
                        </g>
                        <g transform="matrix(-1,0,0,1,515,0)">
                            <rect x="384" y="400" width="24" height="40" style="fill:rgb(146,216,224);"/>
                        </g>
                        <g transform="matrix(-1,0,0,1,515,0)">
                            <path d="M432.645,208L392,208L392,200C391.997,184.123 382.548,169.685 368,163.326L368,104C368,99.611 364.389,96 360,96L338.7,96L366.991,45.075C367.651,43.887 367.998,42.549 367.998,41.19C367.998,38.041 366.139,35.173 363.264,33.887L360.603,32.697L324.815,16.697C321.047,15.012 316.562,16.507 314.557,20.115L272.4,96L168,96C163.611,96 160,99.611 160,104L160,163.35C145.463,169.709 136.017,184.133 136,200L136,344L152,344L152,341.311C155.745,343.082 159.836,344 163.978,344C179.342,344 191.988,331.364 192,316L192,284C192,277.417 197.417,272 204,272C210.583,272 216,277.417 216,284L216,348C216,363.36 228.64,376 244,376C259.36,376 272,363.36 272,348L272,260C272,253.417 277.417,248 284,248C290.583,248 296,253.417 296,260L296,300C296,315.36 308.64,328 324,328C339.36,328 352,315.36 352,300L352,284C352,277.417 357.417,272 364,272C370.583,272 376,277.417 376,284L376,456C375.985,469.16 365.16,479.985 352,480L216,480L216,496L352,496C373.934,495.975 391.975,477.934 392,456L392,448L432.645,448C462.999,447.966 487.966,422.999 488,392.645L488,263.355C487.966,233.001 462.999,208.034 432.645,208ZM352,112L352,128L336,128L336,144L352,144L352,160L303.146,160L329.813,112L352,112ZM299.59,80L329.29,80L320.4,96L290.7,96L299.59,80ZM317.368,48L347.063,48L338.173,64L308.479,64L317.368,48ZM302.62,128L272.92,128L281.809,112L311.503,112L302.62,128ZM264.036,144L293.731,144L284.843,160L255.143,160L264.036,144ZM176,144L232,144L232,128L176,128L176,112L263.507,112L236.842,160L176,160L176,144ZM364,256C348.641,256.004 336.004,268.641 336,284L336,300C336,306.583 330.583,312 324,312C317.417,312 312,306.583 312,300L312,260C312,244.64 299.36,232 284,232C268.64,232 256,244.64 256,260L256,348C256,354.583 250.583,360 244,360C237.417,360 232,354.583 232,348L232,284C232,268.64 219.36,256 204,256C188.64,256 176,268.64 176,284L176,316C176,322.583 170.583,328 164,328C157.417,328 152,322.583 152,316L152,200C152.015,186.84 162.84,176.015 176,176L352.008,176C365.17,176 376,186.83 376,199.992L376,258.707C372.252,256.921 368.152,255.996 364,256ZM392,264L432,264L432,392L392,392L392,264ZM472,392.645C471.975,414.225 454.225,431.975 432.645,432L392,432L392,408L432,408C440.773,407.99 447.99,400.773 448,392L448,264C447.99,255.227 440.773,248.01 432,248L392,248L392,224L432.645,224C454.225,224.025 471.975,241.775 472,263.355L472,392.645Z" style="fill-rule:nonzero;"/>
                        </g>
                        <g transform="matrix(-1,0,0,1,515,0)">
                            <path d="M172.729,379.638C167.907,373.191 161.807,367.807 154.812,363.822L152.218,362.339C130.339,349.846 102.763,352.68 83.883,369.363L87.891,345.315L72.109,342.685L65.919,379.825C54.478,368.107 48.047,352.377 48,336L32,336C32.066,357.85 41.183,378.724 57.167,393.622L27,417.753L37,430.247L54.305,416.4C51.838,423.002 50.574,429.993 50.574,437.041C50.574,469.385 77.189,496 109.533,496L157.168,496C185.373,496 208.584,472.79 208.584,444.584C208.584,433.461 204.974,422.632 198.3,413.734L172.729,379.638ZM188.845,460.422C182.89,472.433 170.573,480.045 157.167,480L109.534,480C85.966,479.998 66.573,460.604 66.573,437.036C66.573,429.56 68.525,422.211 72.234,415.72L73.666,413.214L88.848,443.578L103.158,436.422L84.944,400L120,400L120,384L91.748,384C97.157,378.266 104.05,374.14 111.66,372.084C115.366,371.07 119.19,370.555 123.032,370.552C130.488,370.558 137.814,372.516 144.279,376.23L146.874,377.714C151.97,380.618 156.414,384.54 159.928,389.237L185.5,423.337C193.579,434.034 194.88,448.452 188.845,460.422Z" style="fill-rule:nonzero;"/>
                        </g>
                        <g transform="matrix(-1,0,0,1,515,0)">
                            <rect x="128" y="400" width="16" height="16"/>
                        </g>
                        <g transform="matrix(-1,0,0,1,515,0)">
                            <rect x="152" y="432" width="16" height="16"/>
                        </g>
                        <g transform="matrix(-1,0,0,1,515,0)">
                            <rect x="112" y="440" width="16" height="16"/>
                        </g>
                    </g>
                </g>
            </g>
        </g>
    </g>
</svg>
