<svg clip-rule="evenodd" fill-rule="evenodd" stroke-linejoin="round" stroke-miterlimit="2" viewBox="0 0 250 250" xmlns="http://www.w3.org/2000/svg" xmlns:xlink="http://www.w3.org/1999/xlink"><clipPath id="a"><path clip-rule="evenodd" d="m0 0h250v250h-250z"/></clipPath><g><path d="m0 0h250v250h-250z" fill="none"/><g clip-path="url(#a)" fill="#fff"><g fill-rule="nonzero" transform="matrix(2.27408 0 0 2.27408 -4.03688 -6.22848)"><path d="m21.052 12.818c-1.238-1.228-2.92-1.878-4.868-1.88.125-.551.342-1.081.657-1.554.215-.323-.305-.623-.518-.303-.367.551-.612 1.178-.746 1.829-.459-.764-1.352-1.563-3.1-1.563-.191 0-.394.01-.608.03l-.264.026-.007.265c-.002.052-.016 1.227.748 2.111-.086.046-.175.087-.259.137-1.049.629-1.788 1.51-2.136 2.547-.171.509-.265 1.112-.265 1.699 0 1.788 1.045 4.36 2.236 5.504.621.598 1.319 1.174 2.21 1.342.179.033.337.049.486.049.527 0 .834-.207 1.039-.346.144-.097.197-.133.342-.133.166 0 .282.065.462.168.342.193.869.425 1.57.208.571-.177 1.121-.497 1.732-1.008 1.357-1.135 2.549-3.838 2.549-5.784.001-1.329-.458-2.548-1.26-3.344zm-8.838-2.865c2.446-.117 3.055 1.456 3.197 2.102-1.133.178-1.991-.018-2.536-.575-.48-.491-.621-1.159-.661-1.527zm7.166 11.532c-.548.459-1.033.743-1.525.896-.485.148-.795.014-1.102-.16-.211-.12-.428-.243-.753-.243-.328 0-.505.119-.681.237-.235.158-.533.303-1.076.202-.735-.139-1.35-.65-1.904-1.185-1.055-1.013-2.053-3.478-2.053-5.071 0-.524.083-1.06.233-1.508.303-.9.951-1.669 1.876-2.224.137-.082.279-.155.423-.225.487.338 1.095.514 1.824.514.269 0 .561-.031.863-.079.024.194.059.386.104.576-.599-.042-1.186-.156-1.676-.39-.347-.166-.652.351-.303.518 1.403.671 3.336.671 4.739 0 .349-.167.044-.684-.303-.518-.533.255-1.179.378-1.832.406-.152-.553-.199-1.127-.145-1.693.026 0 .057-.002.082-.002 1.792 0 3.333.589 4.459 1.707.688.684 1.084 1.748 1.084 2.918 0 1.798-1.091 4.286-2.334 5.324z"/><path d="m11.44 14.098c-.672 1.19-.621 2.709-.176 3.976.127.362.707.207.579-.159-.392-1.115-.479-2.461.115-3.514.191-.338-.328-.64-.518-.303z"/><path d="m12.09 13.222c-.387 0-.387.6 0 .6s.387-.6 0-.6z"/></g><g fill-rule="nonzero" transform="matrix(1.7215215544 -.21953601224 .21953601224 1.7215215544 87.0515683988 -20.222522787)"><path d="m23.885 11.354c.36-.769.578-1.233.324-1.784-.177-.386-.517-.659-.982-.79-.157-.044-.309-.066-.451-.066-.414 0-1.107.269-1.107 2.067 0 .157-.212.818-.85 1.044-.801.285-1.315.8-2.555 2.044l-.362.363c-1.494 1.494-2.254 2.198-3.784 3.163-1.637 1.033-3.86 1.94-4.313 1.941-1.125-.09-1.652.347-1.9.703-.259.371-.325.857-.172 1.268.2.541.692.658 1.45.838.579.138 1.453.347 2.776.812.622.219 1.271.329 1.931.329 2.409 0 4.498-1.478 5.528-2.357.575-.492 1.039-.951 1.576-1.481l.673-.663c1.143-1.113 1.921-2.52 2.136-3.858.103-.644.032-1.169-.024-1.592-.014-.105-.033-.214-.051-.326-.08-.474-.163-.964.045-1.414zm-.543-.255-.114.244c-.286.619-.179 1.255-.093 1.766.018.104.035.207.048.306.054.403.116.86.026 1.417-.194 1.213-.91 2.498-1.962 3.523l-.676.666c-.55.544-.985.975-1.543 1.451-.968.827-2.923 2.215-5.139 2.215-.591 0-1.174-.1-1.732-.296-1.353-.476-2.246-.688-2.85-.832-.702-.167-.928-.23-1.013-.46-.084-.226-.043-.507.102-.716.208-.299.601-.457 1.134-.457.073 0 .149.003.252.01.697 0 3.089-1.045 4.655-2.032 1.581-.998 2.36-1.719 3.888-3.247l.363-.363c1.172-1.176 1.658-1.663 2.331-1.902.883-.313 1.249-1.203 1.249-1.609 0-.892.199-1.468.507-1.468.087 0 .185.015.289.044.298.083.494.235.599.462.131.283.02.55-.321 1.278z"/><path d="m18.053 15.849c-.779 1.136-2.044 1.976-3.299 2.517-.354.153-.048.67.303.518 1.352-.584 2.676-1.511 3.514-2.733.22-.32-.3-.619-.518-.302z"/><path d="m18.938 14.919c-.387 0-.387.6 0 .6s.386-.6 0-.6z"/></g><g fill-rule="nonzero" transform="matrix(1.22192249698 -1.23236388268 1.23236388268 1.22192249698 91.9121190644 7.940976949)"><path d="m23.885 11.354c.36-.769.578-1.233.324-1.784-.177-.386-.517-.659-.982-.79-.157-.044-.309-.066-.451-.066-.414 0-1.107.269-1.107 2.067 0 .157-.212.818-.85 1.044-.801.285-1.315.8-2.555 2.044l-.362.363c-1.494 1.494-2.254 2.198-3.784 3.163-1.637 1.033-3.86 1.94-4.313 1.941-1.125-.09-1.652.347-1.9.703-.259.371-.325.857-.172 1.268.2.541.692.658 1.45.838.579.138 1.453.347 2.776.812.622.219 1.271.329 1.931.329 2.409 0 4.498-1.478 5.528-2.357.575-.492 1.039-.951 1.576-1.481l.673-.663c1.143-1.113 1.921-2.52 2.136-3.858.103-.644.032-1.169-.024-1.592-.014-.105-.033-.214-.051-.326-.08-.474-.163-.964.045-1.414zm-.543-.255-.114.244c-.286.619-.179 1.255-.093 1.766.018.104.035.207.048.306.054.403.116.86.026 1.417-.194 1.213-.91 2.498-1.962 3.523l-.676.666c-.55.544-.985.975-1.543 1.451-.968.827-2.923 2.215-5.139 2.215-.591 0-1.174-.1-1.732-.296-1.353-.476-2.246-.688-2.85-.832-.702-.167-.928-.23-1.013-.46-.084-.226-.043-.507.102-.716.208-.299.601-.457 1.134-.457.073 0 .149.003.252.01.697 0 3.089-1.045 4.655-2.032 1.581-.998 2.36-1.719 3.888-3.247l.363-.363c1.172-1.176 1.658-1.663 2.331-1.902.883-.313 1.249-1.203 1.249-1.609 0-.892.199-1.468.507-1.468.087 0 .185.015.289.044.298.083.494.235.599.462.131.283.02.55-.321 1.278z"/><path d="m18.053 15.849c-.779 1.136-2.044 1.976-3.299 2.517-.354.153-.048.67.303.518 1.352-.584 2.676-1.511 3.514-2.733.22-.32-.3-.619-.518-.302z"/><path d="m18.938 14.919c-.387 0-.387.6 0 .6s.386-.6 0-.6z"/></g><path d="m23.885 11.354c.36-.769.578-1.233.324-1.784-.177-.386-.517-.659-.982-.79-.157-.044-.309-.066-.451-.066-.414 0-1.107.269-1.107 2.067 0 .157-.212.818-.85 1.044-.801.285-1.315.8-2.555 2.044l-.362.363c-1.494 1.494-2.254 2.198-3.784 3.163-1.637 1.033-3.86 1.94-4.313 1.941-1.125-.09-1.652.347-1.9.703-.259.371-.325.857-.172 1.268.2.541.692.658 1.45.838.579.138 1.453.347 2.776.812.622.219 1.271.329 1.931.329 2.409 0 4.498-1.478 5.528-2.357.575-.492 1.039-.951 1.576-1.481l.673-.663c1.143-1.113 1.921-2.52 2.136-3.858.103-.644.032-1.169-.024-1.592-.014-.105-.033-.214-.051-.326-.08-.474-.163-.964.045-1.414zm-.543-.255-.114.244c-.286.619-.179 1.255-.093 1.766.018.104.035.207.048.306.054.403.116.86.026 1.417-.194 1.213-.91 2.498-1.962 3.523l-.676.666c-.55.544-.985.975-1.543 1.451-.968.827-2.923 2.215-5.139 2.215-.591 0-1.174-.1-1.732-.296-1.353-.476-2.246-.688-2.85-.832-.702-.167-.928-.23-1.013-.46-.084-.226-.043-.507.102-.716.208-.299.601-.457 1.134-.457.073 0 .149.003.252.01.697 0 3.089-1.045 4.655-2.032 1.581-.998 2.36-1.719 3.888-3.247l.363-.363c1.172-1.176 1.658-1.663 2.331-1.902.883-.313 1.249-1.203 1.249-1.609 0-.892.199-1.468.507-1.468.087 0 .185.015.289.044.298.083.494.235.599.462.131.283.02.55-.321 1.278z" fill-rule="nonzero" transform="matrix(1.7215215544 -.21953601224 .21953601224 1.7215215544 87.0515683988 229.729577213)"/><path d="m23.885 11.354c.36-.769.578-1.233.324-1.784-.177-.386-.517-.659-.982-.79-.157-.044-.309-.066-.451-.066-.414 0-1.107.269-1.107 2.067 0 .157-.212.818-.85 1.044-.801.285-1.315.8-2.555 2.044l-.362.363c-1.494 1.494-2.254 2.198-3.784 3.163-1.637 1.033-3.86 1.94-4.313 1.941-1.125-.09-1.652.347-1.9.703-.259.371-.325.857-.172 1.268.2.541.692.658 1.45.838.579.138 1.453.347 2.776.812.622.219 1.271.329 1.931.329 2.409 0 4.498-1.478 5.528-2.357.575-.492 1.039-.951 1.576-1.481l.673-.663c1.143-1.113 1.921-2.52 2.136-3.858.103-.644.032-1.169-.024-1.592-.014-.105-.033-.214-.051-.326-.08-.474-.163-.964.045-1.414zm-.543-.255-.114.244c-.286.619-.179 1.255-.093 1.766.018.104.035.207.048.306.054.403.116.86.026 1.417-.194 1.213-.91 2.498-1.962 3.523l-.676.666c-.55.544-.985.975-1.543 1.451-.968.827-2.923 2.215-5.139 2.215-.591 0-1.174-.1-1.732-.296-1.353-.476-2.246-.688-2.85-.832-.702-.167-.928-.23-1.013-.46-.084-.226-.043-.507.102-.716.208-.299.601-.457 1.134-.457.073 0 .149.003.252.01.697 0 3.089-1.045 4.655-2.032 1.581-.998 2.36-1.719 3.888-3.247l.363-.363c1.172-1.176 1.658-1.663 2.331-1.902.883-.313 1.249-1.203 1.249-1.609 0-.892.199-1.468.507-1.468.087 0 .185.015.289.044.298.083.494.235.599.462.131.283.02.55-.321 1.278z" fill-rule="nonzero" transform="matrix(1.22192249698 -1.23236388268 1.23236388268 1.22192249698 91.9121190644 257.893076949)"/><g fill-rule="nonzero" transform="matrix(2.10668 .415932 -.415932 2.10668 -25.1296 65.0382)"><path d="m19.594 17.804c-.382-2.452-1.299-5.004-2.971-6.699.065.004.137.018.201.018.747 0 1.359-.238 1.819-.708.888-.907.868-2.347.866-2.408l-.005-.259-.257-.032c-1.563-.196-2.717.1-3.411.869-.418.464-.577 1.001-.637 1.409-.71-.409-1.515-.69-2.426-.799-.384-.046-.379.554 0 .6.895.107 1.674.407 2.356.841l-.023.01c.009.019.836 1.879-1.036 3.365-1.208.958-1.651 2.549-1.806 3.807-1.792.106-3.119 1.331-3.119 2.951 0 1.654 1.469 3.577 3.362 3.577s3.362-1.923 3.362-3.577c0-1.583-1.268-2.788-2.996-2.941.148-1.137.543-2.533 1.569-3.347 1.423-1.13 1.528-2.464 1.413-3.293 1.795 1.571 2.749 4.191 3.138 6.651-1.661.202-2.865 1.387-2.865 2.93 0 1.654 1.468 3.577 3.362 3.577s3.362-1.923 3.362-3.577c.002-1.665-1.394-2.919-3.258-2.965zm-4.323 2.963c0 1.377-1.207 2.978-2.762 2.978s-2.763-1.601-2.763-2.978c0-1.264 1.043-2.226 2.464-2.348-.024.383-.024.704-.017.93-.244-.031-.482-.084-.687-.185-.346-.171-.65.346-.303.518.79.391 1.822.391 2.612 0 .347-.172.043-.689-.303-.518-.214.106-.463.16-.718.188-.006-.218-.007-.541.02-.933 1.418.125 2.457 1.085 2.457 2.348zm.492-10.403c.009-.303.086-.901.517-1.378.517-.572 1.399-.811 2.617-.705-.036.405-.17 1.19-.684 1.714-.53.542-1.361.666-2.45.369zm3.728 13.38c-1.556 0-2.762-1.601-2.762-2.978 0-1.23.987-2.176 2.349-2.338.039.313.068.619.089.92-.241-.031-.476-.084-.679-.185-.346-.171-.65.346-.303.518.79.391 1.822.391 2.612 0 .347-.172.043-.689-.303-.518-.217.107-.469.161-.727.189-.021-.31-.052-.625-.091-.944 1.479.078 2.577 1.059 2.577 2.357.001 1.379-1.206 2.979-2.762 2.979z"/><path d="m19.131 20.255c-.478.079-.881.009-1.226-.352-.268-.28-.691.145-.424.424.504.528 1.113.621 1.809.506.382-.062.22-.64-.159-.578z"/></g><g fill-rule="nonzero" transform="matrix(2.10668 .415932 -.415932 2.10668 224.9 65.0382)"><path d="m12.148 20.255c-.478.079-.881.009-1.226-.352-.268-.28-.691.145-.424.424.504.528 1.113.621 1.809.506.382-.062.22-.64-.159-.578z"/><path d="m19.594 17.804c-.382-2.452-1.299-5.004-2.971-6.699.065.004.137.018.201.018.747 0 1.359-.238 1.819-.708.888-.907.868-2.347.866-2.408l-.005-.259-.257-.032c-1.563-.196-2.717.1-3.411.869-.418.464-.577 1.001-.637 1.409-.71-.409-1.515-.69-2.426-.799-.384-.046-.379.554 0 .6.895.107 1.674.407 2.356.841l-.023.01c.009.019.836 1.879-1.036 3.365-1.208.958-1.651 2.549-1.806 3.807-1.792.106-3.119 1.331-3.119 2.951 0 1.654 1.469 3.577 3.362 3.577s3.362-1.923 3.362-3.577c0-1.583-1.268-2.788-2.996-2.941.148-1.137.543-2.533 1.569-3.347 1.423-1.13 1.528-2.464 1.413-3.293 1.795 1.571 2.749 4.191 3.138 6.651-1.661.202-2.865 1.387-2.865 2.93 0 1.654 1.468 3.577 3.362 3.577s3.362-1.923 3.362-3.577c.002-1.665-1.394-2.919-3.258-2.965zm-4.323 2.963c0 1.377-1.207 2.978-2.762 2.978s-2.763-1.601-2.763-2.978c0-1.264 1.043-2.226 2.464-2.348-.024.383-.024.704-.017.93-.244-.031-.482-.084-.687-.185-.346-.171-.65.346-.303.518.79.391 1.822.391 2.612 0 .347-.172.043-.689-.303-.518-.214.106-.463.16-.718.188-.006-.218-.007-.541.02-.933 1.418.125 2.457 1.085 2.457 2.348zm.492-10.403c.009-.303.086-.901.517-1.378.517-.572 1.399-.811 2.617-.705-.036.405-.17 1.19-.684 1.714-.53.542-1.361.666-2.45.369zm3.728 13.38c-1.556 0-2.762-1.601-2.762-2.978 0-1.23.987-2.176 2.349-2.338.039.313.068.619.089.92-.241-.031-.476-.084-.679-.185-.346-.171-.65.346-.303.518.79.391 1.822.391 2.612 0 .347-.172.043-.689-.303-.518-.217.107-.469.161-.727.189-.021-.31-.052-.625-.091-.944 1.479.078 2.577 1.059 2.577 2.357.001 1.379-1.206 2.979-2.762 2.979z"/></g><g transform="matrix(2.10837 .0115079 -.0115079 2.10837 8.54631 111.532)"><circle cx="10.094" cy="21.153" r=".422"/><circle cx="14.505" cy="20.11" r=".422"/><circle cx="18.535" cy="18.959" r=".422"/><circle cx="19.51" cy="14.92" r=".422"/><circle cx="15.308" cy="15.907" r=".422"/><circle cx="11.047" cy="16.95" r=".422"/><circle cx="11.889" cy="12.517" r=".422"/><circle cx="16.286" cy="11.563" r=".422"/><path d="m24.216 11.21.264-.539c-.048-.024-1.192-.577-2.287-.18-.399.145-.736.394-1.007.745-.401.087-.786.262-1.145.47.025-.684-.07-1.832-.856-2.767-1.159-1.378-2.975-1.518-3.052-1.523l-.271-.019-.045.269c-.009.054-.199 1.251-.04 2.577-1.059.15-1.889.986-2.034 2.046-.426-.674-1.173-1.127-2.028-1.127-1.325 0-2.402 1.078-2.402 2.402 0 .885.486 1.651 1.2 2.068-1.153.175-2.042 1.165-2.042 2.366 0 .758.36 1.427.91 1.867-1.065.246-1.862 1.197-1.862 2.336 0 1.325 1.077 2.402 2.402 2.402 1.248 0 2.264-.96 2.38-2.178.425.678 1.174 1.134 2.031 1.134 1.135 0 2.083-.794 2.333-1.854.435.434 1.035.703 1.697.703 1.325 0 2.402-1.077 2.402-2.402 0-.688-.294-1.305-.759-1.743.998-.291 1.734-1.205 1.734-2.296 0-1.325-1.078-2.402-2.402-2.402-.216 0-.421.038-.62.091.327-.373.734-.791 1.199-1.166l.033-.009.005-.023c.001-.001.001-.001.002-.002.23-.183.51-.34.806-.459-.193.52-.165 1.027.084 1.441.255.423.729.709 1.238.745.64.042 1.148-.234 1.394-.766.269-.583.139-1.336-.31-1.792-.262-.267-.621-.41-1.022-.453.079-.046.162-.084.249-.116.851-.31 1.813.15 1.821.154zm-8.102-.402c.994 0 1.803.809 1.803 1.803s-.809 1.803-1.803 1.803-1.802-.809-1.802-1.803.808-1.803 1.802-1.803zm1.365 6.662c.068.084.137.166.216.24-.112.033-.222.068-.326.115.045-.114.083-.232.11-.355zm-.161-2.793c-.15.234-.262.494-.324.774-.146-.18-.31-.345-.502-.477.299-.047.576-.15.826-.297zm-3.231-.79c.175.277.401.518.671.704-1.01.162-1.808.949-1.982 1.955-.19-.249-.427-.456-.698-.615 1.046-.16 1.865-.992 2.009-2.044zm-.851 4.519c.129.169.28.319.449.449-.271.077-.524.194-.747.355.143-.245.247-.514.298-.804zm-3.321-4.842c0-.994.809-1.803 1.802-1.803.994 0 1.803.809 1.803 1.803s-.809 1.803-1.803 1.803-1.802-.808-1.802-1.803zm.007 10.439c-.994 0-1.802-.809-1.802-1.803s.809-1.802 1.802-1.802c.994 0 1.803.809 1.803 1.802 0 .995-.809 1.803-1.803 1.803zm2.031-3.071c-.144-.23-.328-.429-.539-.599.314-.073.602-.206.856-.388-.174.295-.283.629-.317.987zm-1.078-1.132c-.994 0-1.803-.809-1.803-1.802 0-.994.809-1.803 1.803-1.803s1.802.809 1.802 1.803-.808 1.802-1.802 1.802zm3.458 3.159c-.994 0-1.803-.809-1.803-1.803s.809-1.802 1.803-1.802 1.802.809 1.802 1.802c0 .995-.808 1.803-1.802 1.803zm1.452-3.703c.118-.033.234-.07.344-.121-.041.104-.074.212-.1.322-.075-.074-.16-.137-.244-.201zm-.649-.499c-.994 0-1.803-.809-1.803-1.803s.809-1.802 1.803-1.802 1.802.809 1.802 1.802c0 .994-.808 1.803-1.802 1.803zm5.029 1.249c0 .994-.809 1.802-1.803 1.802s-1.802-.808-1.802-1.802.809-1.803 1.803-1.803c.059 0 .114.012.171.017.164.059.335.097.513.119.655.271 1.118.915 1.118 1.667zm-.827-5.841c.994 0 1.803.809 1.803 1.802 0 .994-.809 1.803-1.803 1.803-.059 0-.114-.012-.171-.017-.163-.059-.335-.097-.512-.119-.655-.27-1.119-.914-1.119-1.666 0-.994.808-1.803 1.802-1.803zm-.864-1.134c.024-.137.042-.276.042-.42 0-.011-.003-.022-.003-.033.12.026.24.04.359.045-.142.138-.275.274-.398.408zm.949-1.041c-.297.048-.767.072-1.03-.1-.282-.887-1.058-1.545-2.008-1.654-.114-.893-.06-1.752-.013-2.183.51.091 1.608.384 2.355 1.272.785.932.746 2.189.696 2.665zm3.318.057c.275.28.358.761.192 1.12-.098.21-.317.452-.807.419-.317-.022-.61-.197-.766-.455-.169-.281-.167-.635.005-1.023.051-.116.108-.223.169-.321.493-.072.947-.005 1.207.26z" fill-rule="nonzero"/></g><g fill-rule="nonzero"><path d="m23.651 11.334c-.997-1.076-2.019-1.622-3.033-1.622-.562 0-1.039.168-1.417.378.192-.568.353-1.235.423-2.03.002-.025-.107-.311-.311-.311s-.28.188-.28.188c-.109 1.376-.506 2.379-.862 3.032l-.065.086.006.017c-.176.308-.33.525-.434.653-.357-.158-.732-.289-1.136-.375-.725-.154-1.62-.134-2.31.055-2.627.719-4.023 3.402-4.21 5.59-.086 1.024-.259 1.725-.885 2.275-.807.71-1.151 1.84-.878 2.877.242.921.921 1.563 1.861 1.76.492.103.998.155 1.504.155 2.382 0 4.817-1.149 6.682-3.154 3.125-3.36 2.147-6.162 1.582-7.209-.153-.283-.342-.542-.555-.783.428.307.868.398 1.239.398 1.533 0 3.013-1.501 3.075-1.565l.199-.204zm-5.251.42c.167.331.35.591.541.801-.147-.131-.279-.272-.446-.386-.087-.059-.19-.098-.28-.152.054-.072.119-.165.185-.263zm.959 2.229c.626 1.161 1.265 3.551-1.493 6.517-2.118 2.278-5.022 3.364-7.623 2.82-.71-.149-1.222-.632-1.404-1.326-.213-.807.066-1.721.694-2.274.857-.755 1.007-1.735 1.086-2.675.175-2.05 1.525-4.448 3.771-5.062.331-.091.715-.139 1.108-.139.318 0 .636.032.918.092.644.137 1.246.388 1.741.727.517.355.921.798 1.202 1.32zm1.212-1.27c-.765 0-1.363-.521-1.783-1.548.245-.261.901-.852 1.83-.852.775 0 1.577.409 2.387 1.215-.432.383-1.452 1.185-2.434 1.185z" transform="matrix(2.25995 0 0 2.25995 9.2778 177.682)"/><path d="m23.651 11.334c-.997-1.076-2.019-1.622-3.033-1.622-.562 0-1.039.168-1.417.378.192-.568.353-1.235.423-2.03.002-.025-.107-.311-.311-.311s-.28.188-.28.188c-.109 1.376-.506 2.379-.862 3.032l-.065.086.006.017c-.176.308-.33.525-.434.653-.357-.158-.732-.289-1.136-.375-.725-.154-1.62-.134-2.31.055-2.627.719-4.023 3.402-4.21 5.59-.086 1.024-.259 1.725-.885 2.275-.807.71-1.151 1.84-.878 2.877.242.921.921 1.563 1.861 1.76.492.103.998.155 1.504.155 2.382 0 4.817-1.149 6.682-3.154 3.125-3.36 2.147-6.162 1.582-7.209-.153-.283-.342-.542-.555-.783.428.307.868.398 1.239.398 1.533 0 3.013-1.501 3.075-1.565l.199-.204zm-5.251.42c.167.331.35.591.541.801-.147-.131-.279-.272-.446-.386-.087-.059-.19-.098-.28-.152.054-.072.119-.165.185-.263zm.959 2.229c.626 1.161 1.265 3.551-1.493 6.517-2.118 2.278-5.022 3.364-7.623 2.82-.71-.149-1.222-.632-1.404-1.326-.213-.807.066-1.721.694-2.274.857-.755 1.007-1.735 1.086-2.675.175-2.05 1.525-4.448 3.771-5.062.331-.091.715-.139 1.108-.139.318 0 .636.032.918.092.644.137 1.246.388 1.741.727.517.355.921.798 1.202 1.32zm1.212-1.27c-.765 0-1.363-.521-1.783-1.548.245-.261.901-.852 1.83-.852.775 0 1.577.409 2.387 1.215-.432.383-1.452 1.185-2.434 1.185z" transform="matrix(1.30754 1.84329 -1.84329 1.30754 101.081 16.0165)"/><g transform="matrix(2.03066 0 0 2.03066 92.5094 154.633)"><path d="m11.276 14.059c-.862 1.109-1.025 2.624-.758 3.977.075.379.653.218.579-.16-.221-1.119-.112-2.473.604-3.394.234-.3-.188-.728-.425-.423z"/><path d="m11.979 13.307c-.387 0-.387.6 0 .6s.387-.6 0-.6z"/><path d="m16.12 11.267c.103-.669.343-1.316.721-1.884.215-.323-.305-.623-.518-.303-.365.549-.611 1.173-.745 1.821-.509-.845-1.554-1.731-3.709-1.525l-.264.025-.007.266c-.001.054-.026 1.334.844 2.228.027.028.06.046.088.073-2.077.941-3.267 2.743-3.267 5.032 0 3.715 3.022 6.737 6.737 6.737s6.737-3.022 6.737-6.737c0-3.397-2.655-5.687-6.617-5.733zm-3.906-1.314c2.446-.106 3.054 1.457 3.198 2.103-.272.043-.529.064-.768.064-.759 0-1.354-.216-1.769-.64-.48-.491-.621-1.159-.661-1.527zm3.786 13.185c-3.384 0-6.138-2.754-6.138-6.138 0-2.19 1.154-3.828 3.243-4.632.435.225.943.351 1.538.351.269 0 .561-.032.862-.079.024.194.059.386.104.576-.599-.042-1.186-.156-1.676-.39-.347-.166-.652.351-.303.518 1.403.671 3.336.671 4.739 0 .349-.167.044-.684-.303-.518-.533.255-1.179.378-1.832.406-.123-.447-.183-.907-.171-1.366 3.691.024 6.075 2.031 6.075 5.133 0 3.385-2.754 6.139-6.138 6.139z"/></g><g transform="matrix(2.03066 0 0 2.03066 174.736 51.9172)"><path d="m11.276 14.059c-.862 1.109-1.025 2.624-.758 3.977.075.379.653.218.579-.16-.221-1.119-.112-2.473.604-3.394.234-.3-.188-.728-.425-.423z"/><path d="m11.979 13.307c-.387 0-.387.6 0 .6s.387-.6 0-.6z"/><path d="m16.12 11.267c.103-.669.343-1.316.721-1.884.215-.323-.305-.623-.518-.303-.365.549-.611 1.173-.745 1.821-.509-.845-1.554-1.731-3.709-1.525l-.264.025-.007.266c-.001.054-.026 1.334.844 2.228.027.028.06.046.088.073-2.077.941-3.267 2.743-3.267 5.032 0 3.715 3.022 6.737 6.737 6.737s6.737-3.022 6.737-6.737c0-3.397-2.655-5.687-6.617-5.733zm-3.906-1.314c2.446-.106 3.054 1.457 3.198 2.103-.272.043-.529.064-.768.064-.759 0-1.354-.216-1.769-.64-.48-.491-.621-1.159-.661-1.527zm3.786 13.185c-3.384 0-6.138-2.754-6.138-6.138 0-2.19 1.154-3.828 3.243-4.632.435.225.943.351 1.538.351.269 0 .561-.032.862-.079.024.194.059.386.104.576-.599-.042-1.186-.156-1.676-.39-.347-.166-.652.351-.303.518 1.403.671 3.336.671 4.739 0 .349-.167.044-.684-.303-.518-.533.255-1.179.378-1.832.406-.123-.447-.183-.907-.171-1.366 3.691.024 6.075 2.031 6.075 5.133 0 3.385-2.754 6.139-6.138 6.139z"/></g><g transform="matrix(2.08547 0 0 2.08547 87.4815 88.4295)"><path d="m21.264 8.985.065-.226-.203-.118c-.922-.531-1.783-.801-2.562-.801-1.333 0-2.145.78-2.6 1.434.035-.852.213-1.681.734-2.191.277-.271-.147-.695-.424-.424-1.051 1.027-.973 3.011-.826 4.428-1.339.164-2.382 1.294-2.382 2.676 0 1.294-.512 2.091-1.105 3.015-.201.313-.409.637-.594.977-.215.371-.382.763-.496 1.163l.288.082-.313.017c-.116.444-.175.883-.175 1.306 0 2.814 2.29 5.104 5.104 5.104 2.815 0 5.105-2.29 5.105-5.104 0-.433-.06-.875-.171-1.285l-.015-.096c-.136-.646-.53-1.259-.952-1.917-.589-.918-1.258-1.958-1.258-3.261 0-1.034-.59-1.924-1.445-2.381.44.188.864.286 1.267.286 2.151 0 2.925-2.574 2.958-2.684zm-3.378 4.778c0 1.479.719 2.598 1.358 3.593.386.602.751 1.171.861 1.701l.019.105c.104.39.157.779.157 1.159 0 2.484-2.021 4.505-4.506 4.505s-4.505-2.021-4.505-4.505c0-.371.053-.76.155-1.153l.021-.087c.102-.353.249-.698.443-1.034.181-.334.381-.645.575-.946.59-.918 1.2-1.868 1.2-3.338 0-1.163.946-2.109 2.109-2.109s2.113.946 2.113 2.109zm-1.87-2.977c.262.185.519.343.771.469-.232-.094-.483-.147-.741-.173-.01-.098-.02-.193-.03-.296zm.123-.64c.222-.481.933-1.706 2.426-1.706.612 0 1.299.202 2.044.6-.221.569-.922 2.028-2.301 2.028-.644.001-1.373-.309-2.169-.922z"/><path d="m14.11 14.428c-.075 1.157-.702 2.301-1.41 3.183-.24.299.182.726.424.424.814-1.014 1.499-2.281 1.586-3.607.025-.386-.575-.384-.6 0z"/><path d="m14.41 13.826c.387 0 .387-.6 0-.6s-.387.6 0 .6z"/></g><g transform="matrix(1.97129 0 0 1.97129 172.667 116.955)"><path d="m14.252 14.004c-.692-.491-.889.983-.761 1.073.126.091 1.453-.582.761-1.073z"/><path d="m11.724 17.779c.127.09 1.454-.582.761-1.073-.692-.491-.888.983-.761 1.073z"/><path d="m15.075 16.706c-.692-.491-.889.983-.761 1.073.126.09 1.453-.582.761-1.073z"/><path d="m11.724 20.546c.127.09 1.454-.582.761-1.073-.692-.491-.888.983-.761 1.073z"/><path d="m14.443 20.65c.127.09 1.453-.582.761-1.073s-.888.983-.761 1.073z"/><path d="m16.979 18.884c.127.09 1.454-.582.761-1.073-.692-.492-.888.982-.761 1.073z"/><path d="m23.011 13.661-.202-.199c-.045-.045-1.036-.983-2.594-1.277.396-.337.872-.645 1.385-.762 0 0 .242-.096.182-.361s-.314-.224-.314-.224c-.589.134-1.125.465-1.569.83-.107-.755-.467-1.882-1.66-2.469l-.269-.132-.134.267c-.02.039-.401.812-.532 1.641-.455-.254-1.224-.585-2.138-.585h-.002l-.294.005v.294c0 .026.009.238.067.535-1.052.079-3.829.796-5.482 5.971-.729 2.282-.602 3.919.377 4.867.645.625 1.601.866 2.643.866 1.062 0 2.213-.251 3.211-.605 2.649-.939 5.28-2.897 5.491-5.244.187.057.386.112.6.162l.322.076.043-.328c.007-.048.137-1.099-.583-2.274.359-.146.893-.415 1.266-.84zm-7.527 8.096c-1.724.612-4.13.944-5.235-.126-.801-.776-.876-2.207-.222-4.253 1.634-5.117 4.335-5.548 5.073-5.564.224.604.665 1.334 1.537 1.882-.375.434-.993 1.306-1.014 2.364l-.005.277.275.027s.2.02.515.02c.591 0 1.661-.073 2.519-.532.244.246.755.657 1.657 1.016-.068 2.148-2.574 3.994-5.1 4.889zm5.529-7.487-.424.116.263.353c.534.718.668 1.42.696 1.824-1.75-.491-2.307-1.257-2.311-1.263l-.166-.245-.247.161c-.834.543-2.052.578-2.577.565.162-1.089 1.063-1.927 1.073-1.936l.32-.293-.387-.196c-1.321-.67-1.664-1.807-1.753-2.356 1.046.098 1.865.723 1.874.73l.484.375v-.612c0-.575.231-1.231.384-1.6.978.658 1.093 1.84 1.1 2.295-.42.437-.685.818-.708.852l.498.335c.005-.007.212-.304.542-.664 1.177.102 2.073.669 2.476.98-.484.397-1.129.577-1.137.579z"/></g><g transform="matrix(1.36003 0 0 1.36003 148.69 30.1567)"><path d="m14.252 14.004c-.692-.491-.889.983-.761 1.073.126.091 1.453-.582.761-1.073z"/><path d="m11.724 17.779c.127.09 1.454-.582.761-1.073-.692-.491-.888.983-.761 1.073z"/><path d="m15.075 16.706c-.692-.491-.889.983-.761 1.073.126.09 1.453-.582.761-1.073z"/><path d="m11.724 20.546c.127.09 1.454-.582.761-1.073-.692-.491-.888.983-.761 1.073z"/><path d="m14.443 20.65c.127.09 1.453-.582.761-1.073s-.888.983-.761 1.073z"/><path d="m16.979 18.884c.127.09 1.454-.582.761-1.073-.692-.492-.888.982-.761 1.073z"/><path d="m23.011 13.661-.202-.199c-.045-.045-1.036-.983-2.594-1.277.396-.337.872-.645 1.385-.762 0 0 .242-.096.182-.361s-.314-.224-.314-.224c-.589.134-1.125.465-1.569.83-.107-.755-.467-1.882-1.66-2.469l-.269-.132-.134.267c-.02.039-.401.812-.532 1.641-.455-.254-1.224-.585-2.138-.585h-.002l-.294.005v.294c0 .026.009.238.067.535-1.052.079-3.829.796-5.482 5.971-.729 2.282-.602 3.919.377 4.867.645.625 1.601.866 2.643.866 1.062 0 2.213-.251 3.211-.605 2.649-.939 5.28-2.897 5.491-5.244.187.057.386.112.6.162l.322.076.043-.328c.007-.048.137-1.099-.583-2.274.359-.146.893-.415 1.266-.84zm-7.527 8.096c-1.724.612-4.13.944-5.235-.126-.801-.776-.876-2.207-.222-4.253 1.634-5.117 4.335-5.548 5.073-5.564.224.604.665 1.334 1.537 1.882-.375.434-.993 1.306-1.014 2.364l-.005.277.275.027s.2.02.515.02c.591 0 1.661-.073 2.519-.532.244.246.755.657 1.657 1.016-.068 2.148-2.574 3.994-5.1 4.889zm5.529-7.487-.424.116.263.353c.534.718.668 1.42.696 1.824-1.75-.491-2.307-1.257-2.311-1.263l-.166-.245-.247.161c-.834.543-2.052.578-2.577.565.162-1.089 1.063-1.927 1.073-1.936l.32-.293-.387-.196c-1.321-.67-1.664-1.807-1.753-2.356 1.046.098 1.865.723 1.874.73l.484.375v-.612c0-.575.231-1.231.384-1.6.978.658 1.093 1.84 1.1 2.295-.42.437-.685.818-.708.852l.498.335c.005-.007.212-.304.542-.664 1.177.102 2.073.669 2.476.98-.484.397-1.129.577-1.137.579z"/></g><g transform="matrix(1.36003 0 0 1.36003 198.393 4.74832)"><path d="m14.252 14.004c-.692-.491-.889.983-.761 1.073.126.091 1.453-.582.761-1.073z"/><path d="m11.724 17.779c.127.09 1.454-.582.761-1.073-.692-.491-.888.983-.761 1.073z"/><path d="m15.075 16.706c-.692-.491-.889.983-.761 1.073.126.09 1.453-.582.761-1.073z"/><path d="m11.724 20.546c.127.09 1.454-.582.761-1.073-.692-.491-.888.983-.761 1.073z"/><path d="m14.443 20.65c.127.09 1.453-.582.761-1.073s-.888.983-.761 1.073z"/><path d="m16.979 18.884c.127.09 1.454-.582.761-1.073-.692-.492-.888.982-.761 1.073z"/><path d="m23.011 13.661-.202-.199c-.045-.045-1.036-.983-2.594-1.277.396-.337.872-.645 1.385-.762 0 0 .242-.096.182-.361s-.314-.224-.314-.224c-.589.134-1.125.465-1.569.83-.107-.755-.467-1.882-1.66-2.469l-.269-.132-.134.267c-.02.039-.401.812-.532 1.641-.455-.254-1.224-.585-2.138-.585h-.002l-.294.005v.294c0 .026.009.238.067.535-1.052.079-3.829.796-5.482 5.971-.729 2.282-.602 3.919.377 4.867.645.625 1.601.866 2.643.866 1.062 0 2.213-.251 3.211-.605 2.649-.939 5.28-2.897 5.491-5.244.187.057.386.112.6.162l.322.076.043-.328c.007-.048.137-1.099-.583-2.274.359-.146.893-.415 1.266-.84zm-7.527 8.096c-1.724.612-4.13.944-5.235-.126-.801-.776-.876-2.207-.222-4.253 1.634-5.117 4.335-5.548 5.073-5.564.224.604.665 1.334 1.537 1.882-.375.434-.993 1.306-1.014 2.364l-.005.277.275.027s.2.02.515.02c.591 0 1.661-.073 2.519-.532.244.246.755.657 1.657 1.016-.068 2.148-2.574 3.994-5.1 4.889zm5.529-7.487-.424.116.263.353c.534.718.668 1.42.696 1.824-1.75-.491-2.307-1.257-2.311-1.263l-.166-.245-.247.161c-.834.543-2.052.578-2.577.565.162-1.089 1.063-1.927 1.073-1.936l.32-.293-.387-.196c-1.321-.67-1.664-1.807-1.753-2.356 1.046.098 1.865.723 1.874.73l.484.375v-.612c0-.575.231-1.231.384-1.6.978.658 1.093 1.84 1.1 2.295-.42.437-.685.818-.708.852l.498.335c.005-.007.212-.304.542-.664 1.177.102 2.073.669 2.476.98-.484.397-1.129.577-1.137.579z"/></g><g transform="matrix(1.82672 -1.38992 1.38992 1.82672 161.202 214.182)"><path d="m25.583 11.059h-19.166v.3c0 5.284 4.299 9.582 9.583 9.582s9.583-4.298 9.583-9.582zm-1.999.6c-.158 4.047-3.5 7.291-7.584 7.291s-7.426-3.244-7.584-7.291zm-7.584 8.682c-4.853 0-8.819-3.868-8.978-8.683h.803c.16 4.377 3.76 7.89 8.175 7.89s8.015-3.513 8.175-7.89h.803c-.159 4.816-4.125 8.683-8.978 8.683z"/><path d="m16 15.371c.879 0 .161-1.363 0-1.363s-.879 1.363 0 1.363z"/><path d="m14.157 13.77c-.123-.105-1.553.468-.884 1.038s1.007-.933.884-1.038z"/><path d="m12.737 12.614c-.045-.155-1.555-.461-1.309.382.247.844 1.354-.227 1.309-.382z"/><path d="m18.918 14.81c.67-.568-.758-1.144-.882-1.04-.123.104.212 1.608.882 1.04z"/><path d="m20.587 12.98c.217-.852-1.281-.493-1.321-.337s1.104 1.189 1.321.337z"/><path d="m11.919 17.325c.314.227.613-.293.303-.518-.608-.441-1.198-.978-1.632-1.596-.22-.314-.741-.015-.518.303.497.708 1.15 1.305 1.847 1.811z"/><path d="m9.758 14.274c-.387 0-.387.6 0 .6s.387-.6 0-.6z"/></g></g></g></g></svg>