<?xml version="1.0" encoding="UTF-8" standalone="no"?>
<!DOCTYPE svg PUBLIC "-//W3C//DTD SVG 1.1//EN" "http://www.w3.org/Graphics/SVG/1.1/DTD/svg11.dtd">
<svg width="100%" height="100%" viewBox="0 0 250 250" version="1.1" xmlns="http://www.w3.org/2000/svg" xmlns:xlink="http://www.w3.org/1999/xlink" xml:space="preserve" xmlns:serif="http://www.serif.com/" style="fill-rule:evenodd;clip-rule:evenodd;stroke-linejoin:round;stroke-miterlimit:2;">
    <g transform="matrix(1,0,0,1,-308.606,0)">
        <g id="White" transform="matrix(1,0,0,1,308.606,0)">
            <rect x="0" y="0" width="250" height="250" style="fill:none;"/>
            <clipPath id="_clip1">
                <rect x="0" y="0" width="250" height="250"/>
            </clipPath>
            <g clip-path="url(#_clip1)">
                <g>
                    <g transform="matrix(2.27408,0,0,2.27408,-4.03688,-6.22848)">
                        <g id="apple">
                            <g>
                                <g id="Layer_2">
                                    <path d="M21.052,12.818C19.814,11.59 18.132,10.94 16.184,10.938C16.309,10.387 16.526,9.857 16.841,9.384C17.056,9.061 16.536,8.761 16.323,9.081C15.956,9.632 15.711,10.259 15.577,10.91C15.118,10.146 14.225,9.347 12.477,9.347C12.286,9.347 12.083,9.357 11.869,9.377L11.605,9.403L11.598,9.668C11.596,9.72 11.582,10.895 12.346,11.779C12.26,11.825 12.171,11.866 12.087,11.916C11.038,12.545 10.299,13.426 9.951,14.463C9.78,14.972 9.686,15.575 9.686,16.162C9.686,17.95 10.731,20.522 11.922,21.666C12.543,22.264 13.241,22.84 14.132,23.008C14.311,23.041 14.469,23.057 14.618,23.057C15.145,23.057 15.452,22.85 15.657,22.711C15.801,22.614 15.854,22.578 15.999,22.578C16.165,22.578 16.281,22.643 16.461,22.746C16.803,22.939 17.33,23.171 18.031,22.954C18.602,22.777 19.152,22.457 19.763,21.946C21.12,20.811 22.312,18.108 22.312,16.162C22.313,14.833 21.854,13.614 21.052,12.818ZM12.214,9.953C14.66,9.836 15.269,11.409 15.411,12.055C14.278,12.233 13.42,12.037 12.875,11.48C12.395,10.989 12.254,10.321 12.214,9.953ZM19.38,21.485C18.832,21.944 18.347,22.228 17.855,22.381C17.37,22.529 17.06,22.395 16.753,22.221C16.542,22.101 16.325,21.978 16,21.978C15.672,21.978 15.495,22.097 15.319,22.215C15.084,22.373 14.786,22.518 14.243,22.417C13.508,22.278 12.893,21.767 12.339,21.232C11.284,20.219 10.286,17.754 10.286,16.161C10.286,15.637 10.369,15.101 10.519,14.653C10.822,13.753 11.47,12.984 12.395,12.429C12.532,12.347 12.674,12.274 12.818,12.204C13.305,12.542 13.913,12.718 14.642,12.718C14.911,12.718 15.203,12.687 15.505,12.639C15.529,12.833 15.564,13.025 15.609,13.215C15.01,13.173 14.423,13.059 13.933,12.825C13.586,12.659 13.281,13.176 13.63,13.343C15.033,14.014 16.966,14.014 18.369,13.343C18.718,13.176 18.413,12.659 18.066,12.825C17.533,13.08 16.887,13.203 16.234,13.231C16.082,12.678 16.035,12.104 16.089,11.538C16.115,11.538 16.146,11.536 16.171,11.536C17.963,11.536 19.504,12.125 20.63,13.243C21.318,13.927 21.714,14.991 21.714,16.161C21.714,17.959 20.623,20.447 19.38,21.485Z" style="fill:white;fill-rule:nonzero;"/>
                                    <path d="M11.44,14.098C10.768,15.288 10.819,16.807 11.264,18.074C11.391,18.436 11.971,18.281 11.843,17.915C11.451,16.8 11.364,15.454 11.958,14.401C12.149,14.063 11.63,13.761 11.44,14.098Z" style="fill:white;fill-rule:nonzero;"/>
                                    <path d="M12.09,13.222C11.703,13.222 11.703,13.822 12.09,13.822C12.477,13.822 12.477,13.222 12.09,13.222Z" style="fill:white;fill-rule:nonzero;"/>
                                </g>
                            </g>
                        </g>
                    </g>
                    <g transform="matrix(1.24871,-0.159241,0.159241,1.24871,-90.639,-45.1721)">
                        <g transform="matrix(1.37864,0,0,1.37864,137.515,37.5168)">
                            <g id="banana">
                                <g>
                                    <g id="Layer_21" serif:id="Layer_2">
                                        <path d="M23.885,11.354C24.245,10.585 24.463,10.121 24.209,9.57C24.032,9.184 23.692,8.911 23.227,8.78C23.07,8.736 22.918,8.714 22.776,8.714C22.362,8.714 21.669,8.983 21.669,10.781C21.669,10.938 21.457,11.599 20.819,11.825C20.018,12.11 19.504,12.625 18.264,13.869L17.902,14.232C16.408,15.726 15.648,16.43 14.118,17.395C12.481,18.428 10.258,19.335 9.805,19.336C8.68,19.246 8.153,19.683 7.905,20.039C7.646,20.41 7.58,20.896 7.733,21.307C7.933,21.848 8.425,21.965 9.183,22.145C9.762,22.283 10.636,22.492 11.959,22.957C12.581,23.176 13.23,23.286 13.89,23.286C16.299,23.286 18.388,21.808 19.418,20.929C19.993,20.437 20.457,19.978 20.994,19.448L21.667,18.785C22.81,17.672 23.588,16.265 23.803,14.927C23.906,14.283 23.835,13.758 23.779,13.335C23.765,13.23 23.746,13.121 23.728,13.009C23.648,12.535 23.565,12.045 23.773,11.595L23.885,11.354ZM23.342,11.099L23.228,11.343C22.942,11.962 23.049,12.598 23.135,13.109C23.153,13.213 23.17,13.316 23.183,13.415C23.237,13.818 23.299,14.275 23.209,14.832C23.015,16.045 22.299,17.33 21.247,18.355L20.571,19.021C20.021,19.565 19.586,19.996 19.028,20.472C18.06,21.299 16.105,22.687 13.889,22.687C13.298,22.687 12.715,22.587 12.157,22.391C10.804,21.915 9.911,21.703 9.307,21.559C8.605,21.392 8.379,21.329 8.294,21.099C8.21,20.873 8.251,20.592 8.396,20.383C8.604,20.084 8.997,19.926 9.53,19.926C9.603,19.926 9.679,19.929 9.782,19.936C10.479,19.936 12.871,18.891 14.437,17.904C16.018,16.906 16.797,16.185 18.325,14.657L18.688,14.294C19.86,13.118 20.346,12.631 21.019,12.392C21.902,12.079 22.268,11.189 22.268,10.783C22.268,9.891 22.467,9.315 22.775,9.315C22.862,9.315 22.96,9.33 23.064,9.359C23.362,9.442 23.558,9.594 23.663,9.821C23.794,10.104 23.683,10.371 23.342,11.099Z" style="fill:white;fill-rule:nonzero;"/>
                                        <path d="M18.053,15.849C17.274,16.985 16.009,17.825 14.754,18.366C14.4,18.519 14.706,19.036 15.057,18.884C16.409,18.3 17.733,17.373 18.571,16.151C18.791,15.831 18.271,15.532 18.053,15.849Z" style="fill:white;fill-rule:nonzero;"/>
                                        <path d="M18.938,14.919C18.551,14.919 18.551,15.519 18.938,15.519C19.325,15.519 19.324,14.919 18.938,14.919Z" style="fill:white;fill-rule:nonzero;"/>
                                    </g>
                                </g>
                            </g>
                        </g>
                        <g transform="matrix(1.08673,-0.848325,0.848325,1.08673,138.515,60.1984)">
                            <g id="banana1" serif:id="banana">
                                <g>
                                    <g id="Layer_22" serif:id="Layer_2">
                                        <path d="M23.885,11.354C24.245,10.585 24.463,10.121 24.209,9.57C24.032,9.184 23.692,8.911 23.227,8.78C23.07,8.736 22.918,8.714 22.776,8.714C22.362,8.714 21.669,8.983 21.669,10.781C21.669,10.938 21.457,11.599 20.819,11.825C20.018,12.11 19.504,12.625 18.264,13.869L17.902,14.232C16.408,15.726 15.648,16.43 14.118,17.395C12.481,18.428 10.258,19.335 9.805,19.336C8.68,19.246 8.153,19.683 7.905,20.039C7.646,20.41 7.58,20.896 7.733,21.307C7.933,21.848 8.425,21.965 9.183,22.145C9.762,22.283 10.636,22.492 11.959,22.957C12.581,23.176 13.23,23.286 13.89,23.286C16.299,23.286 18.388,21.808 19.418,20.929C19.993,20.437 20.457,19.978 20.994,19.448L21.667,18.785C22.81,17.672 23.588,16.265 23.803,14.927C23.906,14.283 23.835,13.758 23.779,13.335C23.765,13.23 23.746,13.121 23.728,13.009C23.648,12.535 23.565,12.045 23.773,11.595L23.885,11.354ZM23.342,11.099L23.228,11.343C22.942,11.962 23.049,12.598 23.135,13.109C23.153,13.213 23.17,13.316 23.183,13.415C23.237,13.818 23.299,14.275 23.209,14.832C23.015,16.045 22.299,17.33 21.247,18.355L20.571,19.021C20.021,19.565 19.586,19.996 19.028,20.472C18.06,21.299 16.105,22.687 13.889,22.687C13.298,22.687 12.715,22.587 12.157,22.391C10.804,21.915 9.911,21.703 9.307,21.559C8.605,21.392 8.379,21.329 8.294,21.099C8.21,20.873 8.251,20.592 8.396,20.383C8.604,20.084 8.997,19.926 9.53,19.926C9.603,19.926 9.679,19.929 9.782,19.936C10.479,19.936 12.871,18.891 14.437,17.904C16.018,16.906 16.797,16.185 18.325,14.657L18.688,14.294C19.86,13.118 20.346,12.631 21.019,12.392C21.902,12.079 22.268,11.189 22.268,10.783C22.268,9.891 22.467,9.315 22.775,9.315C22.862,9.315 22.96,9.33 23.064,9.359C23.362,9.442 23.558,9.594 23.663,9.821C23.794,10.104 23.683,10.371 23.342,11.099Z" style="fill:white;fill-rule:nonzero;"/>
                                        <path d="M18.053,15.849C17.274,16.985 16.009,17.825 14.754,18.366C14.4,18.519 14.706,19.036 15.057,18.884C16.409,18.3 17.733,17.373 18.571,16.151C18.791,15.831 18.271,15.532 18.053,15.849Z" style="fill:white;fill-rule:nonzero;"/>
                                        <path d="M18.938,14.919C18.551,14.919 18.551,15.519 18.938,15.519C19.325,15.519 19.324,14.919 18.938,14.919Z" style="fill:white;fill-rule:nonzero;"/>
                                    </g>
                                </g>
                            </g>
                        </g>
                    </g>
                    <g transform="matrix(1.24871,-0.159241,0.159241,1.24871,-90.639,204.78)">
                        <g transform="matrix(1.37864,0,0,1.37864,137.515,37.5168)">
                            <g id="banana2" serif:id="banana">
                                <g>
                                    <g id="Layer_23" serif:id="Layer_2">
                                        <path d="M23.885,11.354C24.245,10.585 24.463,10.121 24.209,9.57C24.032,9.184 23.692,8.911 23.227,8.78C23.07,8.736 22.918,8.714 22.776,8.714C22.362,8.714 21.669,8.983 21.669,10.781C21.669,10.938 21.457,11.599 20.819,11.825C20.018,12.11 19.504,12.625 18.264,13.869L17.902,14.232C16.408,15.726 15.648,16.43 14.118,17.395C12.481,18.428 10.258,19.335 9.805,19.336C8.68,19.246 8.153,19.683 7.905,20.039C7.646,20.41 7.58,20.896 7.733,21.307C7.933,21.848 8.425,21.965 9.183,22.145C9.762,22.283 10.636,22.492 11.959,22.957C12.581,23.176 13.23,23.286 13.89,23.286C16.299,23.286 18.388,21.808 19.418,20.929C19.993,20.437 20.457,19.978 20.994,19.448L21.667,18.785C22.81,17.672 23.588,16.265 23.803,14.927C23.906,14.283 23.835,13.758 23.779,13.335C23.765,13.23 23.746,13.121 23.728,13.009C23.648,12.535 23.565,12.045 23.773,11.595L23.885,11.354ZM23.342,11.099L23.228,11.343C22.942,11.962 23.049,12.598 23.135,13.109C23.153,13.213 23.17,13.316 23.183,13.415C23.237,13.818 23.299,14.275 23.209,14.832C23.015,16.045 22.299,17.33 21.247,18.355L20.571,19.021C20.021,19.565 19.586,19.996 19.028,20.472C18.06,21.299 16.105,22.687 13.889,22.687C13.298,22.687 12.715,22.587 12.157,22.391C10.804,21.915 9.911,21.703 9.307,21.559C8.605,21.392 8.379,21.329 8.294,21.099C8.21,20.873 8.251,20.592 8.396,20.383C8.604,20.084 8.997,19.926 9.53,19.926C9.603,19.926 9.679,19.929 9.782,19.936C10.479,19.936 12.871,18.891 14.437,17.904C16.018,16.906 16.797,16.185 18.325,14.657L18.688,14.294C19.86,13.118 20.346,12.631 21.019,12.392C21.902,12.079 22.268,11.189 22.268,10.783C22.268,9.891 22.467,9.315 22.775,9.315C22.862,9.315 22.96,9.33 23.064,9.359C23.362,9.442 23.558,9.594 23.663,9.821C23.794,10.104 23.683,10.371 23.342,11.099Z" style="fill:white;fill-rule:nonzero;"/>
                                    </g>
                                </g>
                            </g>
                        </g>
                        <g transform="matrix(1.08673,-0.848325,0.848325,1.08673,138.515,60.1984)">
                            <g id="banana3" serif:id="banana">
                                <g>
                                    <g id="Layer_24" serif:id="Layer_2">
                                        <path d="M23.885,11.354C24.245,10.585 24.463,10.121 24.209,9.57C24.032,9.184 23.692,8.911 23.227,8.78C23.07,8.736 22.918,8.714 22.776,8.714C22.362,8.714 21.669,8.983 21.669,10.781C21.669,10.938 21.457,11.599 20.819,11.825C20.018,12.11 19.504,12.625 18.264,13.869L17.902,14.232C16.408,15.726 15.648,16.43 14.118,17.395C12.481,18.428 10.258,19.335 9.805,19.336C8.68,19.246 8.153,19.683 7.905,20.039C7.646,20.41 7.58,20.896 7.733,21.307C7.933,21.848 8.425,21.965 9.183,22.145C9.762,22.283 10.636,22.492 11.959,22.957C12.581,23.176 13.23,23.286 13.89,23.286C16.299,23.286 18.388,21.808 19.418,20.929C19.993,20.437 20.457,19.978 20.994,19.448L21.667,18.785C22.81,17.672 23.588,16.265 23.803,14.927C23.906,14.283 23.835,13.758 23.779,13.335C23.765,13.23 23.746,13.121 23.728,13.009C23.648,12.535 23.565,12.045 23.773,11.595L23.885,11.354ZM23.342,11.099L23.228,11.343C22.942,11.962 23.049,12.598 23.135,13.109C23.153,13.213 23.17,13.316 23.183,13.415C23.237,13.818 23.299,14.275 23.209,14.832C23.015,16.045 22.299,17.33 21.247,18.355L20.571,19.021C20.021,19.565 19.586,19.996 19.028,20.472C18.06,21.299 16.105,22.687 13.889,22.687C13.298,22.687 12.715,22.587 12.157,22.391C10.804,21.915 9.911,21.703 9.307,21.559C8.605,21.392 8.379,21.329 8.294,21.099C8.21,20.873 8.251,20.592 8.396,20.383C8.604,20.084 8.997,19.926 9.53,19.926C9.603,19.926 9.679,19.929 9.782,19.936C10.479,19.936 12.871,18.891 14.437,17.904C16.018,16.906 16.797,16.185 18.325,14.657L18.688,14.294C19.86,13.118 20.346,12.631 21.019,12.392C21.902,12.079 22.268,11.189 22.268,10.783C22.268,9.891 22.467,9.315 22.775,9.315C22.862,9.315 22.96,9.33 23.064,9.359C23.362,9.442 23.558,9.594 23.663,9.821C23.794,10.104 23.683,10.371 23.342,11.099Z" style="fill:white;fill-rule:nonzero;"/>
                                    </g>
                                </g>
                            </g>
                        </g>
                    </g>
                    <g transform="matrix(2.10668,0.415932,-0.415932,2.10668,-25.1296,65.0382)">
                        <g id="cherry">
                            <g>
                                <g id="Layer_25" serif:id="Layer_2">
                                    <path d="M19.594,17.804C19.212,15.352 18.295,12.8 16.623,11.105C16.688,11.109 16.76,11.123 16.824,11.123C17.571,11.123 18.183,10.885 18.643,10.415C19.531,9.508 19.511,8.068 19.509,8.007L19.504,7.748L19.247,7.716C17.684,7.52 16.53,7.816 15.836,8.585C15.418,9.049 15.259,9.586 15.199,9.994C14.489,9.585 13.684,9.304 12.773,9.195C12.389,9.149 12.394,9.749 12.773,9.795C13.668,9.902 14.447,10.202 15.129,10.636L15.106,10.646C15.115,10.665 15.942,12.525 14.07,14.011C12.862,14.969 12.419,16.56 12.264,17.818C10.472,17.924 9.145,19.149 9.145,20.769C9.145,22.423 10.614,24.346 12.507,24.346C14.4,24.346 15.869,22.423 15.869,20.769C15.869,19.186 14.601,17.981 12.873,17.828C13.021,16.691 13.416,15.295 14.442,14.481C15.865,13.351 15.97,12.017 15.855,11.188C17.65,12.759 18.604,15.379 18.993,17.839C17.332,18.041 16.128,19.226 16.128,20.769C16.128,22.423 17.596,24.346 19.49,24.346C21.384,24.346 22.852,22.423 22.852,20.769C22.854,19.104 21.458,17.85 19.594,17.804ZM15.271,20.767C15.271,22.144 14.064,23.745 12.509,23.745C10.954,23.745 9.746,22.144 9.746,20.767C9.746,19.503 10.789,18.541 12.21,18.419C12.186,18.802 12.186,19.123 12.193,19.349C11.949,19.318 11.711,19.265 11.506,19.164C11.16,18.993 10.856,19.51 11.203,19.682C11.993,20.073 13.025,20.073 13.815,19.682C14.162,19.51 13.858,18.993 13.512,19.164C13.298,19.27 13.049,19.324 12.794,19.352C12.788,19.134 12.787,18.811 12.814,18.419C14.232,18.544 15.271,19.504 15.271,20.767ZM15.763,10.364C15.772,10.061 15.849,9.463 16.28,8.986C16.797,8.414 17.679,8.175 18.897,8.281C18.861,8.686 18.727,9.471 18.213,9.995C17.683,10.537 16.852,10.661 15.763,10.364ZM19.491,23.744C17.935,23.744 16.729,22.143 16.729,20.766C16.729,19.536 17.716,18.59 19.078,18.428C19.117,18.741 19.146,19.047 19.167,19.348C18.926,19.317 18.691,19.264 18.488,19.163C18.142,18.992 17.838,19.509 18.185,19.681C18.975,20.072 20.007,20.072 20.797,19.681C21.144,19.509 20.84,18.992 20.494,19.163C20.277,19.27 20.025,19.324 19.767,19.352C19.746,19.042 19.715,18.727 19.676,18.408C21.155,18.486 22.253,19.467 22.253,20.765C22.254,22.144 21.047,23.744 19.491,23.744Z" style="fill:white;fill-rule:nonzero;"/>
                                    <path d="M19.131,20.255C18.653,20.334 18.25,20.264 17.905,19.903C17.637,19.623 17.214,20.048 17.481,20.327C17.985,20.855 18.594,20.948 19.29,20.833C19.672,20.771 19.51,20.193 19.131,20.255Z" style="fill:white;fill-rule:nonzero;"/>
                                </g>
                            </g>
                        </g>
                    </g>
                    <g transform="matrix(2.10668,0.415932,-0.415932,2.10668,224.9,65.0382)">
                        <g id="cherry1" serif:id="cherry">
                            <g>
                                <g id="Layer_26" serif:id="Layer_2">
                                    <path d="M12.148,20.255C11.67,20.334 11.267,20.264 10.922,19.903C10.654,19.623 10.231,20.048 10.498,20.327C11.002,20.855 11.611,20.948 12.307,20.833C12.689,20.771 12.527,20.193 12.148,20.255Z" style="fill:white;fill-rule:nonzero;"/>
                                    <path d="M19.594,17.804C19.212,15.352 18.295,12.8 16.623,11.105C16.688,11.109 16.76,11.123 16.824,11.123C17.571,11.123 18.183,10.885 18.643,10.415C19.531,9.508 19.511,8.068 19.509,8.007L19.504,7.748L19.247,7.716C17.684,7.52 16.53,7.816 15.836,8.585C15.418,9.049 15.259,9.586 15.199,9.994C14.489,9.585 13.684,9.304 12.773,9.195C12.389,9.149 12.394,9.749 12.773,9.795C13.668,9.902 14.447,10.202 15.129,10.636L15.106,10.646C15.115,10.665 15.942,12.525 14.07,14.011C12.862,14.969 12.419,16.56 12.264,17.818C10.472,17.924 9.145,19.149 9.145,20.769C9.145,22.423 10.614,24.346 12.507,24.346C14.4,24.346 15.869,22.423 15.869,20.769C15.869,19.186 14.601,17.981 12.873,17.828C13.021,16.691 13.416,15.295 14.442,14.481C15.865,13.351 15.97,12.017 15.855,11.188C17.65,12.759 18.604,15.379 18.993,17.839C17.332,18.041 16.128,19.226 16.128,20.769C16.128,22.423 17.596,24.346 19.49,24.346C21.384,24.346 22.852,22.423 22.852,20.769C22.854,19.104 21.458,17.85 19.594,17.804ZM15.271,20.767C15.271,22.144 14.064,23.745 12.509,23.745C10.954,23.745 9.746,22.144 9.746,20.767C9.746,19.503 10.789,18.541 12.21,18.419C12.186,18.802 12.186,19.123 12.193,19.349C11.949,19.318 11.711,19.265 11.506,19.164C11.16,18.993 10.856,19.51 11.203,19.682C11.993,20.073 13.025,20.073 13.815,19.682C14.162,19.51 13.858,18.993 13.512,19.164C13.298,19.27 13.049,19.324 12.794,19.352C12.788,19.134 12.787,18.811 12.814,18.419C14.232,18.544 15.271,19.504 15.271,20.767ZM15.763,10.364C15.772,10.061 15.849,9.463 16.28,8.986C16.797,8.414 17.679,8.175 18.897,8.281C18.861,8.686 18.727,9.471 18.213,9.995C17.683,10.537 16.852,10.661 15.763,10.364ZM19.491,23.744C17.935,23.744 16.729,22.143 16.729,20.766C16.729,19.536 17.716,18.59 19.078,18.428C19.117,18.741 19.146,19.047 19.167,19.348C18.926,19.317 18.691,19.264 18.488,19.163C18.142,18.992 17.838,19.509 18.185,19.681C18.975,20.072 20.007,20.072 20.797,19.681C21.144,19.509 20.84,18.992 20.494,19.163C20.277,19.27 20.025,19.324 19.767,19.352C19.746,19.042 19.715,18.727 19.676,18.408C21.155,18.486 22.253,19.467 22.253,20.765C22.254,22.144 21.047,23.744 19.491,23.744Z" style="fill:white;fill-rule:nonzero;"/>
                                </g>
                            </g>
                        </g>
                    </g>
                    <g transform="matrix(2.10837,0.0115079,-0.0115079,2.10837,8.54631,111.532)">
                        <g id="grape">
                            <g>
                                <g id="Layer_27" serif:id="Layer_2">
                                    <circle cx="10.094" cy="21.153" r="0.422" style="fill:white;"/>
                                    <circle cx="14.505" cy="20.11" r="0.422" style="fill:white;"/>
                                    <circle cx="18.535" cy="18.959" r="0.422" style="fill:white;"/>
                                    <circle cx="19.51" cy="14.92" r="0.422" style="fill:white;"/>
                                    <circle cx="15.308" cy="15.907" r="0.422" style="fill:white;"/>
                                    <circle cx="11.047" cy="16.95" r="0.422" style="fill:white;"/>
                                    <circle cx="11.889" cy="12.517" r="0.422" style="fill:white;"/>
                                    <circle cx="16.286" cy="11.563" r="0.422" style="fill:white;"/>
                                    <path d="M24.216,11.21L24.48,10.671C24.432,10.647 23.288,10.094 22.193,10.491C21.794,10.636 21.457,10.885 21.186,11.236C20.785,11.323 20.4,11.498 20.041,11.706C20.066,11.022 19.971,9.874 19.185,8.939C18.026,7.561 16.21,7.421 16.133,7.416L15.862,7.397L15.817,7.666C15.808,7.72 15.618,8.917 15.777,10.243C14.718,10.393 13.888,11.229 13.743,12.289C13.317,11.615 12.57,11.162 11.715,11.162C10.39,11.162 9.313,12.24 9.313,13.564C9.313,14.449 9.799,15.215 10.513,15.632C9.36,15.807 8.471,16.797 8.471,17.998C8.471,18.756 8.831,19.425 9.381,19.865C8.316,20.111 7.519,21.062 7.519,22.201C7.519,23.526 8.596,24.603 9.921,24.603C11.169,24.603 12.185,23.643 12.301,22.425C12.726,23.103 13.475,23.559 14.332,23.559C15.467,23.559 16.415,22.765 16.665,21.705C17.1,22.139 17.7,22.408 18.362,22.408C19.687,22.408 20.764,21.331 20.764,20.006C20.764,19.318 20.47,18.701 20.005,18.263C21.003,17.972 21.739,17.058 21.739,15.967C21.739,14.642 20.661,13.565 19.337,13.565C19.121,13.565 18.916,13.603 18.717,13.656C19.044,13.283 19.451,12.865 19.916,12.49L19.949,12.481L19.954,12.458C19.955,12.457 19.955,12.457 19.956,12.456C20.186,12.273 20.466,12.116 20.762,11.997C20.569,12.517 20.597,13.024 20.846,13.438C21.101,13.861 21.575,14.147 22.084,14.183C22.724,14.225 23.232,13.949 23.478,13.417C23.747,12.834 23.617,12.081 23.168,11.625C22.906,11.358 22.547,11.215 22.146,11.172C22.225,11.126 22.308,11.088 22.395,11.056C23.246,10.746 24.208,11.206 24.216,11.21ZM16.114,10.808C17.108,10.808 17.917,11.617 17.917,12.611C17.917,13.605 17.108,14.414 16.114,14.414C15.12,14.414 14.312,13.605 14.312,12.611C14.312,11.617 15.12,10.808 16.114,10.808ZM17.479,17.47C17.547,17.554 17.616,17.636 17.695,17.71C17.583,17.743 17.473,17.778 17.369,17.825C17.414,17.711 17.452,17.593 17.479,17.47ZM17.318,14.677C17.168,14.911 17.056,15.171 16.994,15.451C16.848,15.271 16.684,15.106 16.492,14.974C16.791,14.927 17.068,14.824 17.318,14.677ZM14.087,13.887C14.262,14.164 14.488,14.405 14.758,14.591C13.748,14.753 12.95,15.54 12.776,16.546C12.586,16.297 12.349,16.09 12.078,15.931C13.124,15.771 13.943,14.939 14.087,13.887ZM13.236,18.406C13.365,18.575 13.516,18.725 13.685,18.855C13.414,18.932 13.161,19.049 12.938,19.21C13.081,18.965 13.185,18.696 13.236,18.406ZM9.915,13.564C9.915,12.57 10.724,11.761 11.717,11.761C12.711,11.761 13.52,12.57 13.52,13.564C13.52,14.558 12.711,15.367 11.717,15.367C10.723,15.367 9.915,14.559 9.915,13.564ZM9.922,24.003C8.928,24.003 8.12,23.194 8.12,22.2C8.12,21.206 8.929,20.398 9.922,20.398C10.916,20.398 11.725,21.207 11.725,22.2C11.725,23.195 10.916,24.003 9.922,24.003ZM11.953,20.932C11.809,20.702 11.625,20.503 11.414,20.333C11.728,20.26 12.016,20.127 12.27,19.945C12.096,20.24 11.987,20.574 11.953,20.932ZM10.875,19.8C9.881,19.8 9.072,18.991 9.072,17.998C9.072,17.004 9.881,16.195 10.875,16.195C11.869,16.195 12.677,17.004 12.677,17.998C12.677,18.992 11.869,19.8 10.875,19.8ZM14.333,22.959C13.339,22.959 12.53,22.15 12.53,21.156C12.53,20.162 13.339,19.354 14.333,19.354C15.327,19.354 16.135,20.163 16.135,21.156C16.135,22.151 15.327,22.959 14.333,22.959ZM15.785,19.256C15.903,19.223 16.019,19.186 16.129,19.135C16.088,19.239 16.055,19.347 16.029,19.457C15.954,19.383 15.869,19.32 15.785,19.256ZM15.136,18.757C14.142,18.757 13.333,17.948 13.333,16.954C13.333,15.96 14.142,15.152 15.136,15.152C16.13,15.152 16.938,15.961 16.938,16.954C16.938,17.948 16.13,18.757 15.136,18.757ZM20.165,20.006C20.165,21 19.356,21.808 18.362,21.808C17.368,21.808 16.56,21 16.56,20.006C16.56,19.012 17.369,18.203 18.363,18.203C18.422,18.203 18.477,18.215 18.534,18.22C18.698,18.279 18.869,18.317 19.047,18.339C19.702,18.61 20.165,19.254 20.165,20.006ZM19.338,14.165C20.332,14.165 21.141,14.974 21.141,15.967C21.141,16.961 20.332,17.77 19.338,17.77C19.279,17.77 19.224,17.758 19.167,17.753C19.004,17.694 18.832,17.656 18.655,17.634C18,17.364 17.536,16.72 17.536,15.968C17.536,14.974 18.344,14.165 19.338,14.165ZM18.474,13.031C18.498,12.894 18.516,12.755 18.516,12.611C18.516,12.6 18.513,12.589 18.513,12.578C18.633,12.604 18.753,12.618 18.872,12.623C18.73,12.761 18.597,12.897 18.474,13.031ZM19.423,11.99C19.126,12.038 18.656,12.062 18.393,11.89C18.111,11.003 17.335,10.345 16.385,10.236C16.271,9.343 16.325,8.484 16.372,8.053C16.882,8.144 17.98,8.437 18.727,9.325C19.512,10.257 19.473,11.514 19.423,11.99ZM22.741,12.047C23.016,12.327 23.099,12.808 22.933,13.167C22.835,13.377 22.616,13.619 22.126,13.586C21.809,13.564 21.516,13.389 21.36,13.131C21.191,12.85 21.193,12.496 21.365,12.108C21.416,11.992 21.473,11.885 21.534,11.787C22.027,11.715 22.481,11.782 22.741,12.047Z" style="fill:white;fill-rule:nonzero;"/>
                                </g>
                            </g>
                        </g>
                    </g>
                    <g transform="matrix(2.25995,0,0,2.25995,9.2778,177.682)">
                        <g id="mango">
                            <g>
                                <g id="Layer_28" serif:id="Layer_2">
                                    <path d="M23.651,11.334C22.654,10.258 21.632,9.712 20.618,9.712C20.056,9.712 19.579,9.88 19.201,10.09C19.393,9.522 19.554,8.855 19.624,8.06C19.626,8.035 19.517,7.749 19.313,7.749C19.109,7.749 19.033,7.937 19.033,7.937C18.924,9.313 18.527,10.316 18.171,10.969L18.106,11.055L18.112,11.072C17.936,11.38 17.782,11.597 17.678,11.725C17.321,11.567 16.946,11.436 16.542,11.35C15.817,11.196 14.922,11.216 14.232,11.405C11.605,12.124 10.209,14.807 10.022,16.995C9.936,18.019 9.763,18.72 9.137,19.27C8.33,19.98 7.986,21.11 8.259,22.147C8.501,23.068 9.18,23.71 10.12,23.907C10.612,24.01 11.118,24.062 11.624,24.062C14.006,24.062 16.441,22.913 18.306,20.908C21.431,17.548 20.453,14.746 19.888,13.699C19.735,13.416 19.546,13.157 19.333,12.916C19.761,13.223 20.201,13.314 20.572,13.314C22.105,13.314 23.585,11.813 23.647,11.749L23.846,11.545L23.651,11.334ZM18.4,11.754C18.567,12.085 18.75,12.345 18.941,12.555C18.794,12.424 18.662,12.283 18.495,12.169C18.408,12.11 18.305,12.071 18.215,12.017C18.269,11.945 18.334,11.852 18.4,11.754ZM19.359,13.983C19.985,15.144 20.624,17.534 17.866,20.5C15.748,22.778 12.844,23.864 10.243,23.32C9.533,23.171 9.021,22.688 8.839,21.994C8.626,21.187 8.905,20.273 9.533,19.72C10.39,18.965 10.54,17.985 10.619,17.045C10.794,14.995 12.144,12.597 14.39,11.983C14.721,11.892 15.105,11.844 15.498,11.844C15.816,11.844 16.134,11.876 16.416,11.936C17.06,12.073 17.662,12.324 18.157,12.663C18.674,13.018 19.078,13.461 19.359,13.983ZM20.571,12.713C19.806,12.713 19.208,12.192 18.788,11.165C19.033,10.904 19.689,10.313 20.618,10.313C21.393,10.313 22.195,10.722 23.005,11.528C22.573,11.911 21.553,12.713 20.571,12.713Z" style="fill:white;fill-rule:nonzero;"/>
                                </g>
                            </g>
                        </g>
                    </g>
                    <g transform="matrix(1.30754,1.84329,-1.84329,1.30754,101.081,16.0165)">
                        <g id="mango1" serif:id="mango">
                            <g>
                                <g id="Layer_29" serif:id="Layer_2">
                                    <path d="M23.651,11.334C22.654,10.258 21.632,9.712 20.618,9.712C20.056,9.712 19.579,9.88 19.201,10.09C19.393,9.522 19.554,8.855 19.624,8.06C19.626,8.035 19.517,7.749 19.313,7.749C19.109,7.749 19.033,7.937 19.033,7.937C18.924,9.313 18.527,10.316 18.171,10.969L18.106,11.055L18.112,11.072C17.936,11.38 17.782,11.597 17.678,11.725C17.321,11.567 16.946,11.436 16.542,11.35C15.817,11.196 14.922,11.216 14.232,11.405C11.605,12.124 10.209,14.807 10.022,16.995C9.936,18.019 9.763,18.72 9.137,19.27C8.33,19.98 7.986,21.11 8.259,22.147C8.501,23.068 9.18,23.71 10.12,23.907C10.612,24.01 11.118,24.062 11.624,24.062C14.006,24.062 16.441,22.913 18.306,20.908C21.431,17.548 20.453,14.746 19.888,13.699C19.735,13.416 19.546,13.157 19.333,12.916C19.761,13.223 20.201,13.314 20.572,13.314C22.105,13.314 23.585,11.813 23.647,11.749L23.846,11.545L23.651,11.334ZM18.4,11.754C18.567,12.085 18.75,12.345 18.941,12.555C18.794,12.424 18.662,12.283 18.495,12.169C18.408,12.11 18.305,12.071 18.215,12.017C18.269,11.945 18.334,11.852 18.4,11.754ZM19.359,13.983C19.985,15.144 20.624,17.534 17.866,20.5C15.748,22.778 12.844,23.864 10.243,23.32C9.533,23.171 9.021,22.688 8.839,21.994C8.626,21.187 8.905,20.273 9.533,19.72C10.39,18.965 10.54,17.985 10.619,17.045C10.794,14.995 12.144,12.597 14.39,11.983C14.721,11.892 15.105,11.844 15.498,11.844C15.816,11.844 16.134,11.876 16.416,11.936C17.06,12.073 17.662,12.324 18.157,12.663C18.674,13.018 19.078,13.461 19.359,13.983ZM20.571,12.713C19.806,12.713 19.208,12.192 18.788,11.165C19.033,10.904 19.689,10.313 20.618,10.313C21.393,10.313 22.195,10.722 23.005,11.528C22.573,11.911 21.553,12.713 20.571,12.713Z" style="fill:white;fill-rule:nonzero;"/>
                                </g>
                            </g>
                        </g>
                    </g>
                    <g transform="matrix(2.03066,0,0,2.03066,92.5094,154.633)">
                        <g id="orange">
                            <g>
                                <g id="Layer_210" serif:id="Layer_2">
                                    <path d="M11.276,14.059C10.414,15.168 10.251,16.683 10.518,18.036C10.593,18.415 11.171,18.254 11.097,17.876C10.876,16.757 10.985,15.403 11.701,14.482C11.935,14.182 11.513,13.754 11.276,14.059Z" style="fill:white;fill-rule:nonzero;"/>
                                    <path d="M11.979,13.307C11.592,13.307 11.592,13.907 11.979,13.907C12.366,13.907 12.366,13.307 11.979,13.307Z" style="fill:white;fill-rule:nonzero;"/>
                                    <path d="M16.12,11.267C16.223,10.598 16.463,9.951 16.841,9.383C17.056,9.06 16.536,8.76 16.323,9.08C15.958,9.629 15.712,10.253 15.578,10.901C15.069,10.056 14.024,9.17 11.869,9.376L11.605,9.401L11.598,9.667C11.597,9.721 11.572,11.001 12.442,11.895C12.469,11.923 12.502,11.941 12.53,11.968C10.453,12.909 9.263,14.711 9.263,17C9.263,20.715 12.285,23.737 16,23.737C19.715,23.737 22.737,20.715 22.737,17C22.737,13.603 20.082,11.313 16.12,11.267ZM12.214,9.953C14.66,9.847 15.268,11.41 15.412,12.056C15.14,12.099 14.883,12.12 14.644,12.12C13.885,12.12 13.29,11.904 12.875,11.48C12.395,10.989 12.254,10.321 12.214,9.953ZM16,23.138C12.616,23.138 9.862,20.384 9.862,17C9.862,14.81 11.016,13.172 13.105,12.368C13.54,12.593 14.048,12.719 14.643,12.719C14.912,12.719 15.204,12.687 15.505,12.64C15.529,12.834 15.564,13.026 15.609,13.216C15.01,13.174 14.423,13.06 13.933,12.826C13.586,12.66 13.281,13.177 13.63,13.344C15.033,14.015 16.966,14.015 18.369,13.344C18.718,13.177 18.413,12.66 18.066,12.826C17.533,13.081 16.887,13.204 16.234,13.232C16.111,12.785 16.051,12.325 16.063,11.866C19.754,11.89 22.138,13.897 22.138,16.999C22.138,20.384 19.384,23.138 16,23.138Z" style="fill:white;fill-rule:nonzero;"/>
                                </g>
                            </g>
                        </g>
                    </g>
                    <g transform="matrix(2.03066,0,0,2.03066,174.736,51.9172)">
                        <g id="orange1" serif:id="orange">
                            <g>
                                <g id="Layer_211" serif:id="Layer_2">
                                    <path d="M11.276,14.059C10.414,15.168 10.251,16.683 10.518,18.036C10.593,18.415 11.171,18.254 11.097,17.876C10.876,16.757 10.985,15.403 11.701,14.482C11.935,14.182 11.513,13.754 11.276,14.059Z" style="fill:white;fill-rule:nonzero;"/>
                                    <path d="M11.979,13.307C11.592,13.307 11.592,13.907 11.979,13.907C12.366,13.907 12.366,13.307 11.979,13.307Z" style="fill:white;fill-rule:nonzero;"/>
                                    <path d="M16.12,11.267C16.223,10.598 16.463,9.951 16.841,9.383C17.056,9.06 16.536,8.76 16.323,9.08C15.958,9.629 15.712,10.253 15.578,10.901C15.069,10.056 14.024,9.17 11.869,9.376L11.605,9.401L11.598,9.667C11.597,9.721 11.572,11.001 12.442,11.895C12.469,11.923 12.502,11.941 12.53,11.968C10.453,12.909 9.263,14.711 9.263,17C9.263,20.715 12.285,23.737 16,23.737C19.715,23.737 22.737,20.715 22.737,17C22.737,13.603 20.082,11.313 16.12,11.267ZM12.214,9.953C14.66,9.847 15.268,11.41 15.412,12.056C15.14,12.099 14.883,12.12 14.644,12.12C13.885,12.12 13.29,11.904 12.875,11.48C12.395,10.989 12.254,10.321 12.214,9.953ZM16,23.138C12.616,23.138 9.862,20.384 9.862,17C9.862,14.81 11.016,13.172 13.105,12.368C13.54,12.593 14.048,12.719 14.643,12.719C14.912,12.719 15.204,12.687 15.505,12.64C15.529,12.834 15.564,13.026 15.609,13.216C15.01,13.174 14.423,13.06 13.933,12.826C13.586,12.66 13.281,13.177 13.63,13.344C15.033,14.015 16.966,14.015 18.369,13.344C18.718,13.177 18.413,12.66 18.066,12.826C17.533,13.081 16.887,13.204 16.234,13.232C16.111,12.785 16.051,12.325 16.063,11.866C19.754,11.89 22.138,13.897 22.138,16.999C22.138,20.384 19.384,23.138 16,23.138Z" style="fill:white;fill-rule:nonzero;"/>
                                </g>
                            </g>
                        </g>
                    </g>
                    <g transform="matrix(2.08547,0,0,2.08547,87.4815,88.4295)">
                        <g id="pear">
                            <g>
                                <g id="Layer_212" serif:id="Layer_2">
                                    <path d="M21.264,8.985L21.329,8.759L21.126,8.641C20.204,8.11 19.343,7.84 18.564,7.84C17.231,7.84 16.419,8.62 15.964,9.274C15.999,8.422 16.177,7.593 16.698,7.083C16.975,6.812 16.551,6.388 16.274,6.659C15.223,7.686 15.301,9.67 15.448,11.087C14.109,11.251 13.066,12.381 13.066,13.763C13.066,15.057 12.554,15.854 11.961,16.778C11.76,17.091 11.552,17.415 11.367,17.755C11.152,18.126 10.985,18.518 10.871,18.918L11.159,19L10.846,19.017C10.73,19.461 10.671,19.9 10.671,20.323C10.671,23.137 12.961,25.427 15.775,25.427C18.59,25.427 20.88,23.137 20.88,20.323C20.88,19.89 20.82,19.448 20.709,19.038L20.694,18.942C20.558,18.296 20.164,17.683 19.742,17.025C19.153,16.107 18.484,15.067 18.484,13.764C18.484,12.73 17.894,11.84 17.039,11.383C17.479,11.571 17.903,11.669 18.306,11.669C20.457,11.669 21.231,9.095 21.264,8.985ZM17.886,13.763C17.886,15.242 18.605,16.361 19.244,17.356C19.63,17.958 19.995,18.527 20.105,19.057L20.124,19.162C20.228,19.552 20.281,19.941 20.281,20.321C20.281,22.805 18.26,24.826 15.775,24.826C13.29,24.826 11.27,22.805 11.27,20.321C11.27,19.95 11.323,19.561 11.425,19.168L11.446,19.081C11.548,18.728 11.695,18.383 11.889,18.047C12.07,17.713 12.27,17.402 12.464,17.101C13.054,16.183 13.664,15.233 13.664,13.763C13.664,12.6 14.61,11.654 15.773,11.654C16.936,11.654 17.886,12.6 17.886,13.763ZM16.016,10.786C16.278,10.971 16.535,11.129 16.787,11.255C16.555,11.161 16.304,11.108 16.046,11.082C16.036,10.984 16.026,10.889 16.016,10.786ZM16.139,10.146C16.361,9.665 17.072,8.44 18.565,8.44C19.177,8.44 19.864,8.642 20.609,9.04C20.388,9.609 19.687,11.068 18.308,11.068C17.664,11.069 16.935,10.759 16.139,10.146Z" style="fill:white;fill-rule:nonzero;"/>
                                    <path d="M14.11,14.428C14.035,15.585 13.408,16.729 12.7,17.611C12.46,17.91 12.882,18.337 13.124,18.035C13.938,17.021 14.623,15.754 14.71,14.428C14.735,14.042 14.135,14.044 14.11,14.428Z" style="fill:white;fill-rule:nonzero;"/>
                                    <path d="M14.41,13.826C14.797,13.826 14.797,13.226 14.41,13.226C14.023,13.226 14.023,13.826 14.41,13.826Z" style="fill:white;fill-rule:nonzero;"/>
                                </g>
                            </g>
                        </g>
                    </g>
                    <g transform="matrix(1.97129,0,0,1.97129,172.667,116.955)">
                        <g id="strawberry">
                            <g>
                                <g id="Layer_213" serif:id="Layer_2">
                                    <path d="M14.252,14.004C13.56,13.513 13.363,14.987 13.491,15.077C13.617,15.168 14.944,14.495 14.252,14.004Z" style="fill:white;fill-rule:nonzero;"/>
                                    <path d="M11.724,17.779C11.851,17.869 13.178,17.197 12.485,16.706C11.793,16.215 11.597,17.689 11.724,17.779Z" style="fill:white;fill-rule:nonzero;"/>
                                    <path d="M15.075,16.706C14.383,16.215 14.186,17.689 14.314,17.779C14.44,17.869 15.767,17.197 15.075,16.706Z" style="fill:white;fill-rule:nonzero;"/>
                                    <path d="M11.724,20.546C11.851,20.636 13.178,19.964 12.485,19.473C11.793,18.982 11.597,20.456 11.724,20.546Z" style="fill:white;fill-rule:nonzero;"/>
                                    <path d="M14.443,20.65C14.57,20.74 15.896,20.068 15.204,19.577C14.512,19.086 14.316,20.56 14.443,20.65Z" style="fill:white;fill-rule:nonzero;"/>
                                    <path d="M16.979,18.884C17.106,18.974 18.433,18.302 17.74,17.811C17.048,17.319 16.852,18.793 16.979,18.884Z" style="fill:white;fill-rule:nonzero;"/>
                                    <path d="M23.011,13.661L22.809,13.462C22.764,13.417 21.773,12.479 20.215,12.185C20.611,11.848 21.087,11.54 21.6,11.423C21.6,11.423 21.842,11.327 21.782,11.062C21.722,10.797 21.468,10.838 21.468,10.838C20.879,10.972 20.343,11.303 19.899,11.668C19.792,10.913 19.432,9.786 18.239,9.199L17.97,9.067L17.836,9.334C17.816,9.373 17.435,10.146 17.304,10.975C16.849,10.721 16.08,10.39 15.166,10.39L15.164,10.39L14.87,10.395L14.87,10.689C14.87,10.715 14.879,10.927 14.937,11.224C13.885,11.303 11.108,12.02 9.455,17.195C8.726,19.477 8.853,21.114 9.832,22.062C10.477,22.687 11.433,22.928 12.475,22.928C13.537,22.928 14.688,22.677 15.686,22.323C18.335,21.384 20.966,19.426 21.177,17.079C21.364,17.136 21.563,17.191 21.777,17.241L22.099,17.317L22.142,16.989C22.149,16.941 22.279,15.89 21.559,14.715C21.918,14.569 22.452,14.3 22.825,13.875L23.011,13.661ZM15.484,21.757C13.76,22.369 11.354,22.701 10.249,21.631C9.448,20.855 9.373,19.424 10.027,17.378C11.661,12.261 14.362,11.83 15.1,11.814C15.324,12.418 15.765,13.148 16.637,13.696C16.262,14.13 15.644,15.002 15.623,16.06L15.618,16.337L15.893,16.364C15.893,16.364 16.093,16.384 16.408,16.384C16.999,16.384 18.069,16.311 18.927,15.852C19.171,16.098 19.682,16.509 20.584,16.868C20.516,19.016 18.01,20.862 15.484,21.757ZM21.013,14.27L20.589,14.386L20.852,14.739C21.386,15.457 21.52,16.159 21.548,16.563C19.798,16.072 19.241,15.306 19.237,15.3L19.071,15.055L18.824,15.216C17.99,15.759 16.772,15.794 16.247,15.781C16.409,14.692 17.31,13.854 17.32,13.845L17.64,13.552L17.253,13.356C15.932,12.686 15.589,11.549 15.5,11C16.546,11.098 17.365,11.723 17.374,11.73L17.858,12.105L17.858,11.493C17.858,10.918 18.089,10.262 18.242,9.893C19.22,10.551 19.335,11.733 19.342,12.188C18.922,12.625 18.657,13.006 18.634,13.04L19.132,13.375C19.137,13.368 19.344,13.071 19.674,12.711C20.851,12.813 21.747,13.38 22.15,13.691C21.666,14.088 21.021,14.268 21.013,14.27Z" style="fill:white;fill-rule:nonzero;"/>
                                </g>
                            </g>
                        </g>
                    </g>
                    <g transform="matrix(1.36003,0,0,1.36003,148.69,30.1567)">
                        <g id="strawberry1" serif:id="strawberry">
                            <g>
                                <g id="Layer_214" serif:id="Layer_2">
                                    <path d="M14.252,14.004C13.56,13.513 13.363,14.987 13.491,15.077C13.617,15.168 14.944,14.495 14.252,14.004Z" style="fill:white;fill-rule:nonzero;"/>
                                    <path d="M11.724,17.779C11.851,17.869 13.178,17.197 12.485,16.706C11.793,16.215 11.597,17.689 11.724,17.779Z" style="fill:white;fill-rule:nonzero;"/>
                                    <path d="M15.075,16.706C14.383,16.215 14.186,17.689 14.314,17.779C14.44,17.869 15.767,17.197 15.075,16.706Z" style="fill:white;fill-rule:nonzero;"/>
                                    <path d="M11.724,20.546C11.851,20.636 13.178,19.964 12.485,19.473C11.793,18.982 11.597,20.456 11.724,20.546Z" style="fill:white;fill-rule:nonzero;"/>
                                    <path d="M14.443,20.65C14.57,20.74 15.896,20.068 15.204,19.577C14.512,19.086 14.316,20.56 14.443,20.65Z" style="fill:white;fill-rule:nonzero;"/>
                                    <path d="M16.979,18.884C17.106,18.974 18.433,18.302 17.74,17.811C17.048,17.319 16.852,18.793 16.979,18.884Z" style="fill:white;fill-rule:nonzero;"/>
                                    <path d="M23.011,13.661L22.809,13.462C22.764,13.417 21.773,12.479 20.215,12.185C20.611,11.848 21.087,11.54 21.6,11.423C21.6,11.423 21.842,11.327 21.782,11.062C21.722,10.797 21.468,10.838 21.468,10.838C20.879,10.972 20.343,11.303 19.899,11.668C19.792,10.913 19.432,9.786 18.239,9.199L17.97,9.067L17.836,9.334C17.816,9.373 17.435,10.146 17.304,10.975C16.849,10.721 16.08,10.39 15.166,10.39L15.164,10.39L14.87,10.395L14.87,10.689C14.87,10.715 14.879,10.927 14.937,11.224C13.885,11.303 11.108,12.02 9.455,17.195C8.726,19.477 8.853,21.114 9.832,22.062C10.477,22.687 11.433,22.928 12.475,22.928C13.537,22.928 14.688,22.677 15.686,22.323C18.335,21.384 20.966,19.426 21.177,17.079C21.364,17.136 21.563,17.191 21.777,17.241L22.099,17.317L22.142,16.989C22.149,16.941 22.279,15.89 21.559,14.715C21.918,14.569 22.452,14.3 22.825,13.875L23.011,13.661ZM15.484,21.757C13.76,22.369 11.354,22.701 10.249,21.631C9.448,20.855 9.373,19.424 10.027,17.378C11.661,12.261 14.362,11.83 15.1,11.814C15.324,12.418 15.765,13.148 16.637,13.696C16.262,14.13 15.644,15.002 15.623,16.06L15.618,16.337L15.893,16.364C15.893,16.364 16.093,16.384 16.408,16.384C16.999,16.384 18.069,16.311 18.927,15.852C19.171,16.098 19.682,16.509 20.584,16.868C20.516,19.016 18.01,20.862 15.484,21.757ZM21.013,14.27L20.589,14.386L20.852,14.739C21.386,15.457 21.52,16.159 21.548,16.563C19.798,16.072 19.241,15.306 19.237,15.3L19.071,15.055L18.824,15.216C17.99,15.759 16.772,15.794 16.247,15.781C16.409,14.692 17.31,13.854 17.32,13.845L17.64,13.552L17.253,13.356C15.932,12.686 15.589,11.549 15.5,11C16.546,11.098 17.365,11.723 17.374,11.73L17.858,12.105L17.858,11.493C17.858,10.918 18.089,10.262 18.242,9.893C19.22,10.551 19.335,11.733 19.342,12.188C18.922,12.625 18.657,13.006 18.634,13.04L19.132,13.375C19.137,13.368 19.344,13.071 19.674,12.711C20.851,12.813 21.747,13.38 22.15,13.691C21.666,14.088 21.021,14.268 21.013,14.27Z" style="fill:white;fill-rule:nonzero;"/>
                                </g>
                            </g>
                        </g>
                    </g>
                    <g transform="matrix(1.36003,0,0,1.36003,198.393,4.74832)">
                        <g id="strawberry2" serif:id="strawberry">
                            <g>
                                <g id="Layer_215" serif:id="Layer_2">
                                    <path d="M14.252,14.004C13.56,13.513 13.363,14.987 13.491,15.077C13.617,15.168 14.944,14.495 14.252,14.004Z" style="fill:white;fill-rule:nonzero;"/>
                                    <path d="M11.724,17.779C11.851,17.869 13.178,17.197 12.485,16.706C11.793,16.215 11.597,17.689 11.724,17.779Z" style="fill:white;fill-rule:nonzero;"/>
                                    <path d="M15.075,16.706C14.383,16.215 14.186,17.689 14.314,17.779C14.44,17.869 15.767,17.197 15.075,16.706Z" style="fill:white;fill-rule:nonzero;"/>
                                    <path d="M11.724,20.546C11.851,20.636 13.178,19.964 12.485,19.473C11.793,18.982 11.597,20.456 11.724,20.546Z" style="fill:white;fill-rule:nonzero;"/>
                                    <path d="M14.443,20.65C14.57,20.74 15.896,20.068 15.204,19.577C14.512,19.086 14.316,20.56 14.443,20.65Z" style="fill:white;fill-rule:nonzero;"/>
                                    <path d="M16.979,18.884C17.106,18.974 18.433,18.302 17.74,17.811C17.048,17.319 16.852,18.793 16.979,18.884Z" style="fill:white;fill-rule:nonzero;"/>
                                    <path d="M23.011,13.661L22.809,13.462C22.764,13.417 21.773,12.479 20.215,12.185C20.611,11.848 21.087,11.54 21.6,11.423C21.6,11.423 21.842,11.327 21.782,11.062C21.722,10.797 21.468,10.838 21.468,10.838C20.879,10.972 20.343,11.303 19.899,11.668C19.792,10.913 19.432,9.786 18.239,9.199L17.97,9.067L17.836,9.334C17.816,9.373 17.435,10.146 17.304,10.975C16.849,10.721 16.08,10.39 15.166,10.39L15.164,10.39L14.87,10.395L14.87,10.689C14.87,10.715 14.879,10.927 14.937,11.224C13.885,11.303 11.108,12.02 9.455,17.195C8.726,19.477 8.853,21.114 9.832,22.062C10.477,22.687 11.433,22.928 12.475,22.928C13.537,22.928 14.688,22.677 15.686,22.323C18.335,21.384 20.966,19.426 21.177,17.079C21.364,17.136 21.563,17.191 21.777,17.241L22.099,17.317L22.142,16.989C22.149,16.941 22.279,15.89 21.559,14.715C21.918,14.569 22.452,14.3 22.825,13.875L23.011,13.661ZM15.484,21.757C13.76,22.369 11.354,22.701 10.249,21.631C9.448,20.855 9.373,19.424 10.027,17.378C11.661,12.261 14.362,11.83 15.1,11.814C15.324,12.418 15.765,13.148 16.637,13.696C16.262,14.13 15.644,15.002 15.623,16.06L15.618,16.337L15.893,16.364C15.893,16.364 16.093,16.384 16.408,16.384C16.999,16.384 18.069,16.311 18.927,15.852C19.171,16.098 19.682,16.509 20.584,16.868C20.516,19.016 18.01,20.862 15.484,21.757ZM21.013,14.27L20.589,14.386L20.852,14.739C21.386,15.457 21.52,16.159 21.548,16.563C19.798,16.072 19.241,15.306 19.237,15.3L19.071,15.055L18.824,15.216C17.99,15.759 16.772,15.794 16.247,15.781C16.409,14.692 17.31,13.854 17.32,13.845L17.64,13.552L17.253,13.356C15.932,12.686 15.589,11.549 15.5,11C16.546,11.098 17.365,11.723 17.374,11.73L17.858,12.105L17.858,11.493C17.858,10.918 18.089,10.262 18.242,9.893C19.22,10.551 19.335,11.733 19.342,12.188C18.922,12.625 18.657,13.006 18.634,13.04L19.132,13.375C19.137,13.368 19.344,13.071 19.674,12.711C20.851,12.813 21.747,13.38 22.15,13.691C21.666,14.088 21.021,14.268 21.013,14.27Z" style="fill:white;fill-rule:nonzero;"/>
                                </g>
                            </g>
                        </g>
                    </g>
                    <g transform="matrix(1.82672,-1.38992,1.38992,1.82672,161.202,214.182)">
                        <g id="watermelon">
                            <g>
                                <g id="Layer_216" serif:id="Layer_2">
                                    <path d="M25.583,11.059L6.417,11.059L6.417,11.359C6.417,16.643 10.716,20.941 16,20.941C21.284,20.941 25.583,16.643 25.583,11.359L25.583,11.059ZM23.584,11.659C23.426,15.706 20.084,18.95 16,18.95C11.916,18.95 8.574,15.706 8.416,11.659L23.584,11.659ZM16,20.341C11.147,20.341 7.181,16.473 7.022,11.658L7.825,11.658C7.985,16.035 11.585,19.548 16,19.548C20.415,19.548 24.015,16.035 24.175,11.658L24.978,11.658C24.819,16.474 20.853,20.341 16,20.341Z" style="fill:white;fill-rule:nonzero;"/>
                                    <path d="M16,15.371C16.879,15.371 16.161,14.008 16,14.008C15.839,14.008 15.121,15.371 16,15.371Z" style="fill:white;fill-rule:nonzero;"/>
                                    <path d="M14.157,13.77C14.034,13.665 12.604,14.238 13.273,14.808C13.942,15.378 14.28,13.875 14.157,13.77Z" style="fill:white;fill-rule:nonzero;"/>
                                    <path d="M12.737,12.614C12.692,12.459 11.182,12.153 11.428,12.996C11.675,13.84 12.782,12.769 12.737,12.614Z" style="fill:white;fill-rule:nonzero;"/>
                                    <path d="M18.918,14.81C19.588,14.242 18.16,13.666 18.036,13.77C17.913,13.874 18.248,15.378 18.918,14.81Z" style="fill:white;fill-rule:nonzero;"/>
                                    <path d="M20.587,12.98C20.804,12.128 19.306,12.487 19.266,12.643C19.226,12.799 20.37,13.832 20.587,12.98Z" style="fill:white;fill-rule:nonzero;"/>
                                    <path d="M11.919,17.325C12.233,17.552 12.532,17.032 12.222,16.807C11.614,16.366 11.024,15.829 10.59,15.211C10.37,14.897 9.849,15.196 10.072,15.514C10.569,16.222 11.222,16.819 11.919,17.325Z" style="fill:white;fill-rule:nonzero;"/>
                                    <path d="M9.758,14.274C9.371,14.274 9.371,14.874 9.758,14.874C10.145,14.874 10.145,14.274 9.758,14.274Z" style="fill:white;fill-rule:nonzero;"/>
                                </g>
                            </g>
                        </g>
                    </g>
                </g>
            </g>
        </g>
    </g>
</svg>
