<svg xmlns="http://www.w3.org/2000/svg" height="512pt" version="1.1" viewBox="-5 0 512 512" width="512pt">
<g id="surface1">
<path d="M 18.648438 49.308594 L 158.707031 49.308594 L 158.707031 367.054688 L 18.648438 367.054688 Z M 18.648438 49.308594 " style=" stroke:none;fill-rule:nonzero;fill:rgb(70.196078%,84.705882%,95.686275%);fill-opacity:1;" />
<path d="M 18.648438 49.308594 L 48.648438 49.308594 L 48.648438 367.054688 L 18.648438 367.054688 Z M 18.648438 49.308594 " style=" stroke:none;fill-rule:nonzero;fill:rgb(34.117647%,64.313725%,100%);fill-opacity:1;" />
<path d="M 169.855469 49.308594 L 7.5 49.308594 L 7.5 17.5 C 11.40625 13.59375 13.59375 11.40625 17.5 7.5 L 159.855469 7.5 C 163.761719 11.40625 165.953125 13.59375 169.855469 17.5 Z M 169.855469 49.308594 " style=" stroke:none;fill-rule:nonzero;fill:rgb(77.647059%,77.254902%,79.215686%);fill-opacity:1;" />
<path d="M 7.5 367.054688 L 7.5 408.863281 L 49.8125 458.335938 L 49.8125 504.5 L 127.542969 504.5 L 127.542969 458.335938 L 169.855469 408.863281 L 169.855469 367.054688 Z M 7.5 367.054688 " style=" stroke:none;fill-rule:nonzero;fill:rgb(87.843137%,87.843137%,88.627451%);fill-opacity:1;" />
<path d="M 181.007812 49.308594 L 321.066406 49.308594 L 321.066406 367.054688 L 181.007812 367.054688 Z M 181.007812 49.308594 " style=" stroke:none;fill-rule:nonzero;fill:rgb(70.196078%,84.705882%,95.686275%);fill-opacity:1;" />
<path d="M 181.007812 49.308594 L 211.007812 49.308594 L 211.007812 367.054688 L 181.007812 367.054688 Z M 181.007812 49.308594 " style=" stroke:none;fill-rule:nonzero;fill:rgb(34.117647%,64.313725%,100%);fill-opacity:1;" />
<path d="M 332.214844 49.308594 L 169.855469 49.308594 L 169.855469 17.5 C 173.761719 13.59375 175.953125 11.40625 179.855469 7.5 L 322.214844 7.5 C 326.117188 11.40625 328.308594 13.59375 332.214844 17.5 Z M 332.214844 49.308594 " style=" stroke:none;fill-rule:nonzero;fill:rgb(77.647059%,77.254902%,79.215686%);fill-opacity:1;" />
<path d="M 169.855469 367.054688 L 169.855469 408.863281 L 212.171875 458.335938 L 212.171875 504.5 L 289.898438 504.5 L 289.898438 458.335938 L 332.214844 408.863281 L 332.214844 367.054688 Z M 169.855469 367.054688 " style=" stroke:none;fill-rule:nonzero;fill:rgb(87.843137%,87.843137%,88.627451%);fill-opacity:1;" />
<path d="M 131.566406 389.808594 C 126.882812 385.125 119.289062 385.125 114.605469 389.808594 L 108.679688 395.738281 L 102.75 389.808594 C 98.066406 385.125 90.472656 385.125 85.789062 389.808594 C 81.109375 394.492188 81.109375 402.085938 85.789062 406.765625 L 91.71875 412.695312 L 85.789062 418.625 C 81.109375 423.308594 81.109375 430.898438 85.789062 435.582031 C 90.472656 440.265625 98.066406 440.265625 102.75 435.582031 L 108.679688 429.652344 L 114.605469 435.582031 C 119.289062 440.265625 126.882812 440.265625 131.566406 435.582031 C 136.246094 430.898438 136.246094 423.308594 131.566406 418.625 L 125.636719 412.695312 L 131.566406 406.765625 C 136.246094 402.085938 136.246094 394.492188 131.566406 389.808594 Z M 131.566406 389.808594 " style=" stroke:none;fill-rule:nonzero;fill:rgb(77.647059%,77.254902%,79.215686%);fill-opacity:1;" />
<path d="M 293.921875 389.808594 C 289.238281 385.125 281.648438 385.125 276.964844 389.808594 L 271.035156 395.738281 L 265.105469 389.808594 C 260.421875 385.125 252.832031 385.125 248.148438 389.808594 C 243.464844 394.492188 243.464844 402.082031 248.148438 406.765625 L 254.078125 412.695312 L 248.148438 418.625 C 243.464844 423.308594 243.464844 430.898438 248.148438 435.582031 C 252.832031 440.265625 260.421875 440.265625 265.105469 435.582031 L 271.035156 429.652344 L 276.964844 435.582031 C 281.648438 440.265625 289.238281 440.265625 293.921875 435.582031 C 298.605469 430.898438 298.605469 423.308594 293.921875 418.625 L 287.992188 412.695312 L 293.921875 406.765625 C 298.605469 402.085938 298.605469 394.492188 293.921875 389.808594 Z M 293.921875 389.808594 " style=" stroke:none;fill-rule:nonzero;fill:rgb(77.647059%,77.254902%,79.215686%);fill-opacity:1;" />
<path d="M 456.277344 406.765625 C 460.960938 402.085938 460.960938 394.492188 456.277344 389.808594 C 451.59375 385.125 444.003906 385.125 439.320312 389.808594 L 433.390625 395.738281 L 427.460938 389.808594 C 422.777344 385.125 415.1875 385.125 410.503906 389.808594 C 405.820312 394.492188 405.820312 402.085938 410.503906 406.765625 L 416.433594 412.695312 L 410.503906 418.625 C 405.820312 423.308594 405.820312 430.898438 410.503906 435.582031 C 415.1875 440.265625 422.777344 440.265625 427.460938 435.582031 L 433.390625 429.652344 L 439.320312 435.582031 C 444.003906 440.265625 451.59375 440.265625 456.277344 435.582031 C 460.960938 430.898438 460.960938 423.308594 456.277344 418.625 L 450.347656 412.695312 Z M 456.277344 406.765625 " style=" stroke:none;fill-rule:nonzero;fill:rgb(77.647059%,77.254902%,79.215686%);fill-opacity:1;" />
<path d="M 343.363281 49.308594 L 483.421875 49.308594 L 483.421875 367.054688 L 343.363281 367.054688 Z M 343.363281 49.308594 " style=" stroke:none;fill-rule:nonzero;fill:rgb(70.196078%,84.705882%,95.686275%);fill-opacity:1;" />
<path d="M 343.363281 49.308594 L 373.363281 49.308594 L 373.363281 367.054688 L 343.363281 367.054688 Z M 343.363281 49.308594 " style=" stroke:none;fill-rule:nonzero;fill:rgb(34.117647%,64.313725%,100%);fill-opacity:1;" />
<path d="M 494.570312 49.308594 L 332.214844 49.308594 L 332.214844 17.5 C 336.117188 13.59375 338.308594 11.40625 342.214844 7.5 L 484.570312 7.5 C 488.476562 11.40625 490.664062 13.59375 494.570312 17.5 Z M 494.570312 49.308594 " style=" stroke:none;fill-rule:nonzero;fill:rgb(77.647059%,77.254902%,79.215686%);fill-opacity:1;" />
<path d="M 332.214844 367.054688 L 332.214844 408.863281 L 374.527344 458.335938 L 374.527344 504.5 L 452.257812 504.5 L 452.257812 458.335938 L 494.570312 408.863281 L 494.570312 367.054688 Z M 332.214844 367.054688 " style=" stroke:none;fill-rule:nonzero;fill:rgb(87.843137%,87.843137%,88.627451%);fill-opacity:1;" />
<path d="M 127.542969 483 L 127.542969 458.335938 L 169.855469 408.863281 L 212.167969 458.335938 L 212.167969 483 Z M 289.898438 458.335938 L 289.898438 483 L 374.527344 483 L 374.527344 458.335938 L 332.214844 408.863281 Z M 49.8125 458.335938 L 7.5 408.863281 L 7.5 483 L 49.8125 483 Z M 452.257812 483 L 494.570312 483 L 494.570312 408.863281 L 452.257812 458.335938 Z M 452.257812 483 " style=" stroke:none;fill-rule:nonzero;fill:rgb(47.058824%,46.27451%,50.196078%);fill-opacity:1;" />
<path d="M 413.589844 213.539062 C 418.695312 208.433594 418.695312 200.152344 413.589844 195.046875 C 408.484375 189.941406 400.203125 189.941406 395.097656 195.046875 L 343.363281 195.046875 L 343.363281 367.054688 L 483.421875 367.054688 L 483.421875 195.046875 L 450.703125 194.917969 C 445.597656 189.8125 437.316406 189.8125 432.210938 194.917969 L 413.460938 213.667969 Z M 413.589844 213.539062 " style=" stroke:none;fill-rule:nonzero;fill:rgb(100%,47.45098%,33.72549%);fill-opacity:1;" />
<path d="M 111.566406 389.808594 C 106.882812 385.125 99.289062 385.125 94.605469 389.808594 L 88.679688 395.738281 L 82.75 389.808594 C 78.066406 385.125 70.472656 385.125 65.789062 389.808594 C 61.109375 394.492188 61.109375 402.085938 65.789062 406.765625 L 71.71875 412.695312 L 65.789062 418.625 C 61.109375 423.308594 61.109375 430.898438 65.789062 435.582031 C 70.472656 440.265625 78.066406 440.265625 82.75 435.582031 L 88.679688 429.652344 L 94.605469 435.582031 C 99.289062 440.265625 106.882812 440.265625 111.566406 435.582031 C 116.246094 430.898438 116.246094 423.308594 111.566406 418.625 L 105.636719 412.695312 L 111.566406 406.765625 C 116.246094 402.085938 116.246094 394.492188 111.566406 389.808594 Z M 111.566406 389.808594 " style=" stroke:none;fill-rule:nonzero;fill:rgb(47.058824%,46.27451%,50.196078%);fill-opacity:1;" />
<path d="M 273.921875 389.808594 C 269.238281 385.125 261.648438 385.125 256.964844 389.808594 L 251.035156 395.738281 L 245.105469 389.808594 C 240.421875 385.125 232.832031 385.125 228.148438 389.808594 C 223.464844 394.492188 223.464844 402.082031 228.148438 406.765625 L 234.078125 412.695312 L 228.148438 418.625 C 223.464844 423.308594 223.464844 430.898438 228.148438 435.582031 C 232.832031 440.265625 240.421875 440.265625 245.105469 435.582031 L 251.035156 429.652344 L 256.964844 435.582031 C 261.648438 440.265625 269.238281 440.265625 273.921875 435.582031 C 278.605469 430.898438 278.605469 423.308594 273.921875 418.625 L 267.992188 412.695312 L 273.921875 406.765625 C 278.605469 402.085938 278.605469 394.492188 273.921875 389.808594 Z M 273.921875 389.808594 " style=" stroke:none;fill-rule:nonzero;fill:rgb(47.058824%,46.27451%,50.196078%);fill-opacity:1;" />
<path d="M 436.277344 406.765625 C 440.960938 402.085938 440.960938 394.492188 436.277344 389.808594 C 431.59375 385.125 424.003906 385.125 419.320312 389.808594 L 413.390625 395.738281 L 407.460938 389.808594 C 402.777344 385.125 395.1875 385.125 390.503906 389.808594 C 385.820312 394.492188 385.820312 402.085938 390.503906 406.765625 L 396.433594 412.695312 L 390.503906 418.625 C 385.820312 423.308594 385.820312 430.898438 390.503906 435.582031 C 395.1875 440.265625 402.777344 440.265625 407.460938 435.582031 L 413.390625 429.652344 L 419.320312 435.582031 C 424.003906 440.265625 431.59375 440.265625 436.277344 435.582031 C 440.960938 430.898438 440.960938 423.308594 436.277344 418.625 L 430.347656 412.695312 Z M 436.277344 406.765625 " style=" stroke:none;fill-rule:nonzero;fill:rgb(47.058824%,46.27451%,50.196078%);fill-opacity:1;" />
<path d="M 77.503906 173.488281 C 67.488281 173.488281 58.96875 179.890625 55.816406 188.824219 L 18.648438 188.824219 L 18.648438 367.054688 L 158.707031 367.054688 L 158.707031 188.824219 L 99.191406 188.824219 C 96.035156 179.890625 87.515625 173.488281 77.503906 173.488281 Z M 77.503906 173.488281 " style=" stroke:none;fill-rule:nonzero;fill:rgb(93.333333%,52.941176%,0%);fill-opacity:1;" />
<path d="M 181.007812 173.488281 L 321.066406 173.488281 L 321.066406 367.054688 L 181.007812 367.054688 Z M 181.007812 173.488281 " style=" stroke:none;fill-rule:nonzero;fill:rgb(71.372549%,90.980392%,57.254902%);fill-opacity:1;" />
<path d="M 47.5 7.5 L 17.5 7.5 C 13.59375 11.40625 11.40625 13.59375 7.5 17.5 L 7.5 49.308594 L 37.5 49.308594 L 37.5 17.5 C 41.40625 13.59375 43.59375 11.40625 47.5 7.5 Z M 47.5 7.5 " style=" stroke:none;fill-rule:nonzero;fill:rgb(53.72549%,53.333333%,56.470588%);fill-opacity:1;" />
<path d="M 27.5 408.863281 L 27.5 367.054688 L 7.5 367.054688 L 7.5 408.863281 L 49.8125 458.335938 L 49.8125 504.5 L 69.8125 504.5 L 69.8125 458.335938 Z M 27.5 408.863281 " style=" stroke:none;fill-rule:nonzero;fill:rgb(77.647059%,77.254902%,79.215686%);fill-opacity:1;" />
<path d="M 209.855469 7.5 L 179.855469 7.5 C 175.953125 11.40625 173.761719 13.59375 169.855469 17.5 L 169.855469 49.308594 L 199.855469 49.308594 L 199.855469 17.5 C 203.761719 13.59375 205.949219 11.40625 209.855469 7.5 Z M 209.855469 7.5 " style=" stroke:none;fill-rule:nonzero;fill:rgb(53.72549%,53.333333%,56.470588%);fill-opacity:1;" />
<path d="M 189.855469 408.863281 L 189.855469 367.054688 L 169.855469 367.054688 L 169.855469 408.863281 L 212.171875 458.335938 L 212.171875 504.5 L 232.171875 504.5 L 232.171875 458.335938 Z M 189.855469 408.863281 " style=" stroke:none;fill-rule:nonzero;fill:rgb(77.647059%,77.254902%,79.215686%);fill-opacity:1;" />
<path d="M 372.214844 7.5 L 342.214844 7.5 C 338.308594 11.40625 336.117188 13.59375 332.214844 17.5 L 332.214844 49.308594 L 362.214844 49.308594 L 362.214844 17.5 C 366.117188 13.59375 368.308594 11.40625 372.214844 7.5 Z M 372.214844 7.5 " style=" stroke:none;fill-rule:nonzero;fill:rgb(53.72549%,53.333333%,56.470588%);fill-opacity:1;" />
<path d="M 352.214844 408.863281 L 352.214844 367.054688 L 332.214844 367.054688 L 332.214844 408.863281 L 374.527344 458.335938 L 374.527344 504.5 L 394.527344 504.5 L 394.527344 458.335938 Z M 352.214844 408.863281 " style=" stroke:none;fill-rule:nonzero;fill:rgb(77.647059%,77.254902%,79.215686%);fill-opacity:1;" />
<path d="M 179.855469 420.554688 L 169.855469 408.863281 L 127.542969 458.335938 L 127.542969 483 L 147.542969 483 L 147.542969 458.335938 Z M 179.855469 420.554688 " style=" stroke:none;fill-rule:nonzero;fill:rgb(34.117647%,33.72549%,36.078431%);fill-opacity:1;" />
<path d="M 7.5 408.863281 L 7.5 483 L 27.5 483 L 27.5 432.246094 Z M 7.5 408.863281 " style=" stroke:none;fill-rule:nonzero;fill:rgb(34.117647%,33.72549%,36.078431%);fill-opacity:1;" />
<path d="M 342.214844 420.554688 L 332.214844 408.863281 L 289.898438 458.335938 L 289.898438 483 L 309.898438 483 L 309.898438 458.335938 Z M 342.214844 420.554688 " style=" stroke:none;fill-rule:nonzero;fill:rgb(34.117647%,33.72549%,36.078431%);fill-opacity:1;" />
<path d="M 494.570312 432.246094 L 494.570312 408.863281 L 452.257812 458.335938 L 452.257812 483 L 472.257812 483 L 472.257812 458.335938 Z M 494.570312 432.246094 " style=" stroke:none;fill-rule:nonzero;fill:rgb(34.117647%,33.72549%,36.078431%);fill-opacity:1;" />
<path d="M 443.589844 195.046875 C 448.695312 200.152344 448.695312 208.433594 443.589844 213.539062 L 462.164062 194.964844 L 450.703125 194.917969 C 447.171875 191.386719 442.121094 190.300781 437.65625 191.65625 C 439.828125 192.222656 441.886719 193.34375 443.589844 195.046875 Z M 443.589844 195.046875 " style=" stroke:none;fill-rule:nonzero;fill:rgb(100%,24.705882%,38.431373%);fill-opacity:1;" />
<path d="M 343.363281 195.046875 L 373.363281 195.046875 L 373.363281 367.054688 L 343.363281 367.054688 Z M 343.363281 195.046875 " style=" stroke:none;fill-rule:nonzero;fill:rgb(100%,24.705882%,38.431373%);fill-opacity:1;" />
<path d="M 102.75 389.808594 L 108.679688 395.738281 L 112.941406 391.472656 C 112.539062 390.890625 112.085938 390.328125 111.566406 389.808594 C 108.082031 386.324219 102.988281 385.4375 98.679688 387.140625 C 100.160156 387.722656 101.550781 388.609375 102.75 389.808594 Z M 102.75 389.808594 " style=" stroke:none;fill-rule:nonzero;fill:rgb(34.117647%,33.72549%,36.078431%);fill-opacity:1;" />
<path d="M 85.792969 418.625 L 91.722656 412.695312 L 85.792969 406.765625 C 81.628906 402.601562 81.175781 396.144531 84.414062 391.472656 L 82.75 389.808594 C 78.066406 385.125 70.476562 385.125 65.792969 389.808594 C 61.109375 394.492188 61.109375 402.082031 65.792969 406.765625 L 71.722656 412.695312 L 65.792969 418.625 C 61.109375 423.308594 61.109375 430.898438 65.792969 435.582031 C 70.476562 440.265625 78.066406 440.265625 82.75 435.582031 L 84.414062 433.917969 C 81.175781 429.242188 81.628906 422.785156 85.792969 418.625 Z M 85.792969 418.625 " style=" stroke:none;fill-rule:nonzero;fill:rgb(34.117647%,33.72549%,36.078431%);fill-opacity:1;" />
<path d="M 108.679688 429.652344 L 102.75 435.582031 C 101.550781 436.78125 100.160156 437.667969 98.679688 438.253906 C 102.988281 439.953125 108.078125 439.066406 111.566406 435.582031 C 112.085938 435.0625 112.539062 434.5 112.941406 433.917969 Z M 108.679688 429.652344 " style=" stroke:none;fill-rule:nonzero;fill:rgb(34.117647%,33.72549%,36.078431%);fill-opacity:1;" />
<path d="M 265.105469 389.808594 L 271.035156 395.738281 L 275.300781 391.472656 C 274.894531 390.890625 274.441406 390.328125 273.921875 389.808594 C 270.4375 386.324219 265.34375 385.4375 261.035156 387.140625 C 262.515625 387.722656 263.90625 388.609375 265.105469 389.808594 Z M 265.105469 389.808594 " style=" stroke:none;fill-rule:nonzero;fill:rgb(34.117647%,33.72549%,36.078431%);fill-opacity:1;" />
<path d="M 271.035156 429.652344 L 265.105469 435.582031 C 263.90625 436.78125 262.515625 437.667969 261.035156 438.253906 C 265.34375 439.953125 270.4375 439.066406 273.921875 435.582031 C 274.441406 435.0625 274.894531 434.5 275.296875 433.917969 Z M 271.035156 429.652344 " style=" stroke:none;fill-rule:nonzero;fill:rgb(34.117647%,33.72549%,36.078431%);fill-opacity:1;" />
<path d="M 248.148438 418.625 L 254.078125 412.695312 L 248.148438 406.765625 C 243.984375 402.601562 243.53125 396.144531 246.769531 391.472656 L 245.105469 389.808594 C 240.421875 385.125 232.832031 385.125 228.148438 389.808594 C 223.464844 394.492188 223.464844 402.082031 228.148438 406.765625 L 234.078125 412.695312 L 228.148438 418.625 C 223.464844 423.308594 223.464844 430.898438 228.148438 435.582031 C 232.832031 440.265625 240.421875 440.265625 245.105469 435.582031 L 246.769531 433.917969 C 243.53125 429.242188 243.984375 422.785156 248.148438 418.625 Z M 248.148438 418.625 " style=" stroke:none;fill-rule:nonzero;fill:rgb(34.117647%,33.72549%,36.078431%);fill-opacity:1;" />
<path d="M 427.464844 389.808594 L 433.390625 395.738281 L 437.65625 391.472656 C 437.25 390.890625 436.800781 390.328125 436.277344 389.808594 C 432.796875 386.324219 427.699219 385.4375 423.390625 387.140625 C 424.875 387.722656 426.265625 388.609375 427.464844 389.808594 Z M 427.464844 389.808594 " style=" stroke:none;fill-rule:nonzero;fill:rgb(34.117647%,33.72549%,36.078431%);fill-opacity:1;" />
<path d="M 433.390625 429.652344 L 427.464844 435.582031 C 426.265625 436.78125 424.875 437.667969 423.390625 438.253906 C 427.699219 439.953125 432.792969 439.066406 436.277344 435.582031 C 436.800781 435.0625 437.253906 434.5 437.65625 433.917969 Z M 433.390625 429.652344 " style=" stroke:none;fill-rule:nonzero;fill:rgb(34.117647%,33.72549%,36.078431%);fill-opacity:1;" />
<path d="M 410.503906 418.625 L 416.433594 412.695312 L 410.503906 406.765625 C 406.34375 402.601562 405.890625 396.144531 409.128906 391.472656 L 407.464844 389.808594 C 402.78125 385.125 395.1875 385.125 390.503906 389.808594 C 385.820312 394.492188 385.820312 402.082031 390.503906 406.765625 L 396.433594 412.695312 L 390.503906 418.625 C 385.820312 423.308594 385.820312 430.898438 390.503906 435.582031 C 395.1875 440.265625 402.78125 440.265625 407.464844 435.582031 L 409.128906 433.917969 C 405.890625 429.242188 406.34375 422.785156 410.503906 418.625 Z M 410.503906 418.625 " style=" stroke:none;fill-rule:nonzero;fill:rgb(34.117647%,33.72549%,36.078431%);fill-opacity:1;" />
<path d="M 92.503906 179.066406 C 88.476562 175.59375 83.234375 173.488281 77.503906 173.488281 C 67.488281 173.488281 58.96875 179.890625 55.816406 188.824219 L 85.816406 188.824219 C 87.164062 185.007812 89.496094 181.65625 92.503906 179.066406 Z M 92.503906 179.066406 " style=" stroke:none;fill-rule:nonzero;fill:rgb(66.666667%,38.039216%,0%);fill-opacity:1;" />
<path d="M 18.648438 188.824219 L 48.648438 188.824219 L 48.648438 367.054688 L 18.648438 367.054688 Z M 18.648438 188.824219 " style=" stroke:none;fill-rule:nonzero;fill:rgb(66.666667%,38.039216%,0%);fill-opacity:1;" />
<path d="M 181.007812 173.488281 L 211.007812 173.488281 L 211.007812 367.054688 L 181.007812 367.054688 Z M 181.007812 173.488281 " style=" stroke:none;fill-rule:nonzero;fill:rgb(48.627451%,80%,57.254902%);fill-opacity:1;" />
<path d="M 214.558594 263.113281 L 229.558594 263.113281 L 229.558594 278.113281 L 214.558594 278.113281 Z M 214.558594 263.113281 " style=" stroke:none;fill-rule:nonzero;fill:rgb(0%,0%,0%);fill-opacity:1;" />
<path d="M 241.035156 263.113281 L 256.035156 263.113281 L 256.035156 278.113281 L 241.035156 278.113281 Z M 241.035156 263.113281 " style=" stroke:none;fill-rule:nonzero;fill:rgb(0%,0%,0%);fill-opacity:1;" />
<path d="M 267.511719 263.113281 L 282.511719 263.113281 L 282.511719 278.113281 L 267.511719 278.113281 Z M 267.511719 263.113281 " style=" stroke:none;fill-rule:nonzero;fill:rgb(0%,0%,0%);fill-opacity:1;" />
<path d="M 208.996094 204.988281 L 223.996094 204.988281 L 223.996094 219.988281 L 208.996094 219.988281 Z M 208.996094 204.988281 " style=" stroke:none;fill-rule:nonzero;fill:rgb(0%,0%,0%);fill-opacity:1;" />
<path d="M 235.46875 204.988281 L 250.46875 204.988281 L 250.46875 219.988281 L 235.46875 219.988281 Z M 235.46875 204.988281 " style=" stroke:none;fill-rule:nonzero;fill:rgb(0%,0%,0%);fill-opacity:1;" />
<path d="M 261.945312 204.988281 L 276.945312 204.988281 L 276.945312 219.988281 L 261.945312 219.988281 Z M 261.945312 204.988281 " style=" stroke:none;fill-rule:nonzero;fill:rgb(0%,0%,0%);fill-opacity:1;" />
<path d="M 254.273438 234.050781 L 269.273438 234.050781 L 269.273438 249.050781 L 254.273438 249.050781 Z M 254.273438 234.050781 " style=" stroke:none;fill-rule:nonzero;fill:rgb(0%,0%,0%);fill-opacity:1;" />
<path d="M 280.746094 234.050781 L 295.746094 234.050781 L 295.746094 249.050781 L 280.746094 249.050781 Z M 280.746094 234.050781 " style=" stroke:none;fill-rule:nonzero;fill:rgb(0%,0%,0%);fill-opacity:1;" />
<path d="M 230.304688 292.179688 L 245.304688 292.179688 L 245.304688 307.179688 L 230.304688 307.179688 Z M 230.304688 292.179688 " style=" stroke:none;fill-rule:nonzero;fill:rgb(0%,0%,0%);fill-opacity:1;" />
<path d="M 256.78125 292.179688 L 271.78125 292.179688 L 271.78125 307.179688 L 256.78125 307.179688 Z M 256.78125 292.179688 " style=" stroke:none;fill-rule:nonzero;fill:rgb(0%,0%,0%);fill-opacity:1;" />
<path d="M 151.207031 69.308594 L 166.207031 69.308594 L 166.207031 168.824219 L 151.207031 168.824219 Z M 151.207031 69.308594 " style=" stroke:none;fill-rule:nonzero;fill:rgb(0%,0%,0%);fill-opacity:1;" />
<path d="M 11.148438 69.308594 L 26.148438 69.308594 L 26.148438 168.824219 L 11.148438 168.824219 Z M 11.148438 69.308594 " style=" stroke:none;fill-rule:nonzero;fill:rgb(0%,0%,0%);fill-opacity:1;" />
<path d="M 313.5625 69.308594 L 328.5625 69.308594 L 328.5625 153.488281 L 313.5625 153.488281 Z M 313.5625 69.308594 " style=" stroke:none;fill-rule:nonzero;fill:rgb(0%,0%,0%);fill-opacity:1;" />
<path d="M 173.507812 69.308594 L 188.507812 69.308594 L 188.507812 153.488281 L 173.507812 153.488281 Z M 173.507812 69.308594 " style=" stroke:none;fill-rule:nonzero;fill:rgb(0%,0%,0%);fill-opacity:1;" />
<path d="M 335.863281 69.308594 L 350.863281 69.308594 L 350.863281 175.046875 L 335.863281 175.046875 Z M 335.863281 69.308594 " style=" stroke:none;fill-rule:nonzero;fill:rgb(0%,0%,0%);fill-opacity:1;" />
<path d="M 475.921875 69.308594 L 490.921875 69.308594 L 490.921875 175.046875 L 475.921875 175.046875 Z M 475.921875 69.308594 " style=" stroke:none;fill-rule:nonzero;fill:rgb(0%,0%,0%);fill-opacity:1;" />
<path d="M 487.675781 0 L 339.105469 0 L 332.214844 6.894531 L 325.320312 0 L 176.75 0 L 169.855469 6.894531 L 162.964844 0 L 14.394531 0 L 0 14.394531 L 0 56.808594 C 13.558594 56.808594 488.523438 56.808594 502.070312 56.808594 L 502.070312 14.394531 Z M 162.355469 41.808594 L 15 41.808594 L 15 20.605469 L 20.605469 15 L 156.75 15 L 162.355469 20.605469 Z M 324.714844 41.808594 L 177.355469 41.808594 L 177.355469 20.605469 L 182.964844 15 L 319.105469 15 L 324.714844 20.605469 Z M 487.070312 41.808594 L 339.714844 41.808594 L 339.714844 20.605469 L 345.320312 15 L 481.464844 15 L 487.070312 20.605469 Z M 487.070312 41.808594 " style=" stroke:none;fill-rule:nonzero;fill:rgb(0%,0%,0%);fill-opacity:1;" />
<path d="M 0 359.554688 L 0 411.632812 L 42.3125 461.105469 L 42.3125 512 L 135.042969 512 L 135.042969 461.105469 L 169.855469 420.402344 L 204.667969 461.105469 L 204.667969 512 L 297.398438 512 L 297.398438 461.105469 L 332.210938 420.402344 L 367.023438 461.105469 L 367.023438 512 L 459.753906 512 L 459.753906 461.105469 L 502.066406 411.632812 L 502.066406 359.554688 C 488.511719 359.554688 13.546875 359.554688 0 359.554688 Z M 120.042969 455.566406 L 120.042969 497 L 57.3125 497 L 57.3125 465.835938 L 88.679688 465.835938 L 88.679688 450.835938 L 53.265625 450.835938 L 15 406.09375 L 15 374.554688 L 162.355469 374.554688 L 162.355469 406.09375 Z M 282.398438 455.566406 L 282.398438 497 L 219.671875 497 L 219.671875 465.835938 L 251.035156 465.835938 L 251.035156 450.835938 L 215.625 450.835938 L 177.355469 406.09375 L 177.355469 374.554688 L 324.710938 374.554688 L 324.710938 406.09375 Z M 487.070312 374.554688 L 487.070312 406.09375 L 444.757812 455.566406 L 444.757812 497 L 382.027344 497 L 382.027344 465.835938 L 413.390625 465.835938 L 413.390625 450.835938 L 377.980469 450.835938 L 339.714844 406.09375 L 339.714844 374.554688 Z M 487.070312 374.554688 " style=" stroke:none;fill-rule:nonzero;fill:rgb(0%,0%,0%);fill-opacity:1;" />
<path d="M 309.898438 475.5 L 354.527344 475.5 L 354.527344 490.5 L 309.898438 490.5 Z M 309.898438 475.5 " style=" stroke:none;fill-rule:nonzero;fill:rgb(0%,0%,0%);fill-opacity:1;" />
<path d="M 15 433.863281 L 0 433.863281 L 0 490.5 L 29.8125 490.5 L 29.8125 475.5 L 15 475.5 Z M 15 433.863281 " style=" stroke:none;fill-rule:nonzero;fill:rgb(0%,0%,0%);fill-opacity:1;" />
<path d="M 487.070312 475.5 L 472.257812 475.5 L 472.257812 490.5 L 502.070312 490.5 L 502.070312 433.863281 L 487.070312 433.863281 Z M 487.070312 475.5 " style=" stroke:none;fill-rule:nonzero;fill:rgb(0%,0%,0%);fill-opacity:1;" />
<path d="M 147.542969 475.5 L 192.167969 475.5 L 192.167969 490.5 L 147.542969 490.5 Z M 147.542969 475.5 " style=" stroke:none;fill-rule:nonzero;fill:rgb(0%,0%,0%);fill-opacity:1;" />
<path d="M 335.863281 347.054688 L 350.863281 347.054688 L 350.863281 202.546875 L 398.203125 202.546875 L 400.402344 200.351562 C 401.453125 199.296875 402.855469 198.71875 404.34375 198.71875 C 409.273438 198.71875 411.800781 204.722656 408.285156 208.238281 C 406.21875 210.304688 391.742188 224.78125 389.664062 226.859375 C 387.191406 229.332031 383.699219 229.03125 381.652344 226.984375 C 379.476562 224.8125 379.476562 221.273438 381.652344 219.101562 L 371.046875 208.492188 C 361.527344 218.011719 363.503906 234.238281 375.546875 240.980469 L 370.917969 245.609375 C 362.894531 253.628906 362.894531 266.683594 370.917969 274.707031 C 378.957031 282.746094 391.976562 282.75 400.015625 274.707031 L 389.410156 264.101562 C 388.355469 265.152344 386.957031 265.734375 385.46875 265.734375 C 380.539062 265.734375 378.007812 259.730469 381.523438 256.214844 C 383.65625 254.082031 398.199219 239.539062 400.273438 237.464844 C 402.449219 235.292969 405.984375 235.289062 408.160156 237.464844 C 409.992188 239.296875 410.261719 242.089844 409.003906 244.226562 L 407.890625 245.339844 C 404.003906 249.226562 401.863281 254.394531 401.863281 259.890625 C 401.863281 271.335938 411.136719 280.457031 422.441406 280.457031 C 427.710938 280.457031 432.980469 278.449219 436.988281 274.4375 L 455.738281 255.6875 L 445.132812 245.082031 L 426.382812 263.832031 C 422.875 267.339844 416.863281 264.828125 416.863281 259.890625 C 416.863281 258.375 417.421875 257.023438 418.628906 255.816406 L 418.765625 255.957031 C 419.414062 255.308594 419.992188 254.617188 420.535156 253.910156 L 435.210938 239.234375 C 435.921875 238.691406 436.609375 238.113281 437.257812 237.464844 L 437.117188 237.324219 C 439.570312 234.871094 443.058594 235.121094 445.132812 237.195312 L 455.738281 226.589844 C 447.699219 218.550781 434.683594 218.546875 426.640625 226.589844 L 425.527344 227.703125 C 423.390625 228.960938 420.597656 228.691406 418.765625 226.859375 C 416.589844 224.683594 416.589844 221.148438 418.765625 218.972656 C 420.839844 216.898438 435.382812 202.355469 437.515625 200.222656 C 439.695312 198.042969 443.222656 198.042969 445.402344 200.222656 L 447.585938 202.40625 L 475.921875 202.519531 L 475.921875 347.054688 L 490.921875 347.054688 L 490.921875 187.574219 L 453.4375 187.429688 C 445.585938 181.78125 434.285156 182.238281 426.910156 189.613281 L 422.296875 194.230469 C 416.207031 183.359375 402.140625 180.542969 392.378906 187.546875 L 335.863281 187.546875 Z M 335.863281 347.054688 " style=" stroke:none;fill-rule:nonzero;fill:rgb(0%,0%,0%);fill-opacity:1;" />
<path d="M 116.242188 412.695312 L 116.867188 412.070312 C 124.46875 404.472656 124.46875 392.105469 116.867188 384.507812 C 109.273438 376.910156 96.90625 376.902344 89.304688 384.507812 L 88.679688 385.132812 L 88.054688 384.507812 C 80.453125 376.90625 68.085938 376.90625 60.488281 384.507812 C 52.871094 392.121094 52.871094 404.453125 60.488281 412.070312 L 61.113281 412.695312 L 60.488281 413.320312 C 56.808594 417.003906 54.78125 421.894531 54.78125 427.101562 C 54.78125 437.875 63.496094 446.59375 74.273438 446.59375 C 79.476562 446.59375 84.371094 444.566406 88.054688 440.886719 L 88.679688 440.261719 L 89.304688 440.886719 C 96.921875 448.503906 109.25 448.503906 116.867188 440.886719 C 124.46875 433.285156 124.46875 420.921875 116.867188 413.320312 Z M 106.261719 423.925781 C 108.011719 425.679688 108.011719 428.527344 106.261719 430.277344 C 104.507812 432.03125 101.667969 432.035156 99.910156 430.277344 L 88.679688 419.046875 L 77.445312 430.277344 C 74.644531 433.078125 69.78125 431.121094 69.78125 427.101562 C 69.78125 425.902344 70.246094 424.777344 71.097656 423.925781 L 82.324219 412.695312 L 71.09375 401.464844 C 69.339844 399.707031 69.339844 396.867188 71.09375 395.113281 C 72.847656 393.363281 75.695312 393.359375 77.445312 395.113281 L 88.679688 406.34375 L 99.910156 395.113281 C 101.660156 393.363281 104.511719 393.359375 106.261719 395.113281 C 108.011719 396.863281 108.011719 399.714844 106.261719 401.464844 L 95.03125 412.695312 Z M 106.261719 423.925781 " style=" stroke:none;fill-rule:nonzero;fill:rgb(0%,0%,0%);fill-opacity:1;" />
<path d="M 278.597656 412.695312 L 279.222656 412.070312 C 286.824219 404.472656 286.824219 392.105469 279.222656 384.507812 C 271.628906 376.910156 259.261719 376.902344 251.660156 384.507812 L 251.035156 385.132812 L 250.410156 384.507812 C 242.8125 376.90625 230.445312 376.90625 222.84375 384.507812 C 215.246094 392.105469 215.246094 404.472656 222.84375 412.070312 L 223.46875 412.695312 L 222.84375 413.320312 C 215.246094 420.921875 215.246094 433.285156 222.84375 440.882812 C 230.460938 448.5 242.789062 448.503906 250.410156 440.882812 L 251.035156 440.257812 L 251.660156 440.882812 C 259.277344 448.5 271.605469 448.503906 279.222656 440.882812 C 286.824219 433.28125 286.824219 420.917969 279.222656 413.320312 Z M 268.617188 423.925781 C 270.367188 425.679688 270.367188 428.527344 268.617188 430.277344 C 266.863281 432.03125 264.023438 432.035156 262.265625 430.277344 L 251.035156 419.046875 L 239.804688 430.277344 C 238.953125 431.128906 237.828125 431.59375 236.628906 431.59375 C 232.65625 431.59375 230.621094 426.757812 233.453125 423.925781 L 244.683594 412.695312 L 233.453125 401.460938 C 231.699219 399.710938 231.699219 396.859375 233.453125 395.109375 C 235.203125 393.359375 238.054688 393.359375 239.804688 395.109375 L 251.035156 406.34375 L 262.265625 395.113281 C 264.019531 393.363281 266.867188 393.359375 268.617188 395.113281 C 270.371094 396.863281 270.371094 399.714844 268.617188 401.464844 L 257.386719 412.695312 Z M 268.617188 423.925781 " style=" stroke:none;fill-rule:nonzero;fill:rgb(0%,0%,0%);fill-opacity:1;" />
<path d="M 385.203125 440.886719 C 388.882812 444.566406 393.777344 446.59375 398.984375 446.59375 C 404.191406 446.59375 409.085938 444.566406 412.765625 440.886719 L 413.390625 440.261719 L 414.015625 440.886719 C 421.632812 448.503906 433.964844 448.503906 441.582031 440.886719 C 449.199219 433.269531 449.199219 420.941406 441.582031 413.320312 L 440.953125 412.695312 L 441.582031 412.070312 C 445.261719 408.390625 447.289062 403.496094 447.289062 398.289062 C 447.289062 393.085938 445.261719 388.1875 441.578125 384.507812 C 433.980469 376.90625 421.617188 376.90625 414.015625 384.507812 L 413.390625 385.132812 L 412.765625 384.507812 C 405.164062 376.90625 392.800781 376.90625 385.199219 384.507812 C 377.601562 392.109375 377.601562 404.472656 385.199219 412.070312 L 385.824219 412.695312 L 385.199219 413.320312 C 377.601562 420.921875 377.601562 433.285156 385.203125 440.886719 Z M 395.808594 401.464844 C 394.058594 399.710938 394.058594 396.863281 395.808594 395.109375 C 397.558594 393.359375 400.410156 393.359375 402.160156 395.109375 L 413.390625 406.34375 L 424.621094 395.109375 C 426.375 393.359375 429.222656 393.359375 430.976562 395.109375 C 432.730469 396.867188 432.730469 399.707031 430.976562 401.460938 L 419.742188 412.695312 L 430.976562 423.925781 C 431.824219 424.773438 432.289062 425.902344 432.289062 427.101562 C 432.289062 431.074219 427.453125 433.105469 424.621094 430.277344 L 413.390625 419.046875 L 402.160156 430.277344 C 401.3125 431.125 400.183594 431.589844 398.984375 431.589844 C 395.015625 431.589844 392.976562 426.753906 395.808594 423.925781 L 407.039062 412.691406 Z M 395.808594 401.464844 " style=" stroke:none;fill-rule:nonzero;fill:rgb(0%,0%,0%);fill-opacity:1;" />
<path d="M 11.148438 347.054688 L 26.148438 347.054688 L 26.148438 196.324219 L 47.011719 196.324219 C 46.921875 212.238281 59.136719 225.460938 74.78125 226.851562 C 73.417969 232.882812 73.894531 239.25 76.222656 245.042969 C 63.003906 248.378906 53.191406 260.367188 53.191406 274.609375 L 68.191406 274.609375 C 68.191406 263.421875 79.789062 255.835938 90.066406 260.503906 C 90.480469 260.726562 90.894531 260.9375 91.316406 261.140625 C 96.007812 263.804688 99.183594 268.839844 99.183594 274.609375 C 99.183594 283.152344 92.230469 290.105469 83.6875 290.105469 L 83.6875 305.105469 C 105.207031 305.105469 120.070312 283.242188 111.964844 263.207031 C 117.253906 261.882812 122.105469 259.148438 126.0625 255.191406 L 115.457031 244.585938 C 110.640625 249.402344 103.417969 250.363281 97.621094 247.496094 C 87.664062 242.359375 86.394531 229.820312 93.542969 222.671875 C 99.535156 216.679688 109.386719 216.601562 115.457031 222.671875 L 126.0625 212.066406 C 114.929688 200.933594 97.558594 200.296875 85.695312 209.625 C 75.460938 216.050781 62.007812 208.648438 62.007812 196.484375 C 62.007812 187.96875 68.945312 180.988281 77.503906 180.988281 C 84.0625 180.988281 89.9375 185.140625 92.121094 191.320312 L 93.886719 196.324219 L 151.210938 196.324219 L 151.210938 347.054688 L 166.210938 347.054688 L 166.210938 181.324219 L 103.96875 181.324219 C 92.257812 160.910156 62.75 160.910156 51.039062 181.324219 L 11.152344 181.324219 L 11.152344 347.054688 Z M 11.148438 347.054688 " style=" stroke:none;fill-rule:nonzero;fill:rgb(0%,0%,0%);fill-opacity:1;" />
<path d="M 173.507812 347.054688 L 188.507812 347.054688 L 188.507812 180.988281 L 313.5625 180.988281 L 313.5625 347.054688 L 328.5625 347.054688 L 328.5625 165.988281 L 173.507812 165.988281 Z M 173.507812 347.054688 " style=" stroke:none;fill-rule:nonzero;fill:rgb(0%,0%,0%);fill-opacity:1;" />
<path d="M 140.078125 168.824219 L 125.078125 168.824219 L 125.078125 119.515625 L 140.078125 119.515625 Z M 140.078125 109.515625 L 125.078125 109.515625 L 125.078125 94.515625 L 140.078125 94.515625 Z M 140.078125 84.515625 L 125.078125 84.515625 L 125.078125 69.515625 L 140.078125 69.515625 Z M 140.078125 84.515625 " style=" stroke:none;fill-rule:nonzero;fill:rgb(100%,100%,100%);fill-opacity:1;" />
<path d="M 139.679688 348.5 L 87.679688 348.5 L 87.679688 333.5 L 139.679688 333.5 Z M 77.679688 348.5 L 62.679688 348.5 L 62.679688 333.5 L 77.679688 333.5 Z M 52.679688 348.5 L 37.679688 348.5 L 37.679688 333.5 L 52.679688 333.5 Z M 52.679688 348.5 " style=" stroke:none;fill-rule:nonzero;fill:rgb(100%,100%,100%);fill-opacity:1;" />
<path d="M 302.433594 153.488281 L 287.433594 153.488281 L 287.433594 119.515625 L 302.433594 119.515625 Z M 302.433594 109.515625 L 287.433594 109.515625 L 287.433594 94.515625 L 302.433594 94.515625 Z M 302.433594 84.515625 L 287.433594 84.515625 L 287.433594 69.515625 L 302.433594 69.515625 Z M 302.433594 84.515625 " style=" stroke:none;fill-rule:nonzero;fill:rgb(100%,100%,100%);fill-opacity:1;" />
<path d="M 302.035156 348.5 L 250.035156 348.5 L 250.035156 333.5 L 302.035156 333.5 Z M 240.035156 348.5 L 225.035156 348.5 L 225.035156 333.5 L 240.035156 333.5 Z M 215.035156 348.5 L 200.035156 348.5 L 200.035156 333.5 L 215.035156 333.5 Z M 215.035156 348.5 " style=" stroke:none;fill-rule:nonzero;fill:rgb(100%,100%,100%);fill-opacity:1;" />
<path d="M 464.789062 174.945312 L 449.789062 174.945312 L 449.789062 119.515625 L 464.789062 119.515625 Z M 464.789062 109.515625 L 449.789062 109.515625 L 449.789062 94.515625 L 464.789062 94.515625 Z M 464.789062 84.515625 L 449.789062 84.515625 L 449.789062 69.515625 L 464.789062 69.515625 Z M 464.789062 84.515625 " style=" stroke:none;fill-rule:nonzero;fill:rgb(100%,100%,100%);fill-opacity:1;" />
<path d="M 464.390625 348.5 L 412.390625 348.5 L 412.390625 333.5 L 464.390625 333.5 Z M 402.390625 348.5 L 387.390625 348.5 L 387.390625 333.5 L 402.390625 333.5 Z M 377.390625 348.5 L 362.390625 348.5 L 362.390625 333.5 L 377.390625 333.5 Z M 377.390625 348.5 " style=" stroke:none;fill-rule:nonzero;fill:rgb(100%,100%,100%);fill-opacity:1;" />
</g>
</svg>